<svg width="27" height="15" viewBox="0 0 27 15" fill="none" xmlns="http://www.w3.org/2000/svg">
<path d="M12.1719 1.5625V2.92188C12.1562 4.67188 12.1562 6.64062 11.6094 9.59375L9.85938 9.40625C10.4062 6.65625 10.4062 4.64844 10.4219 2.95312H1.98438V1.5625H12.1719ZM13.5156 11.1406V12.5625H0.640625V11.1406H5.39062V6.23438H7.10938V11.1406H13.5156ZM22.0156 1.39062V2.78125H17.0156V6.48438C19.8984 6.47656 21.4766 6.41406 23.2969 6.07812L23.4531 7.45312C21.4844 7.8125 19.7656 7.92188 16.5 7.92188H15.2969V1.39062H22.0156ZM26.2344 9.34375V14.3906H24.4844V10.75H16.5938V9.34375H26.2344ZM26.2344 0.296875V8.64062H24.4844V0.296875H26.2344Z" fill="#358FFE"/>
</svg>
