<svg width="42" height="15" viewBox="0 0 42 15" fill="none" xmlns="http://www.w3.org/2000/svg">
<path d="M5.13281 3.96875C5.13281 6.25 5.92969 8.625 7.83594 9.82812L6.88281 11.1562C5.60938 10.3906 4.78125 9.07031 4.32031 7.51562C3.80469 9.22656 2.89844 10.6719 1.57031 11.4844L0.492188 10.1875C2.53906 8.9375 3.46094 6.45312 3.46094 4.04688V1.51562H5.13281V3.96875ZM12.9141 0.265625V14.3906H11.2422V0.265625H12.9141ZM9.97656 0.515625V13.7031H8.33594V6.5625H6.32031V5.125H8.33594V0.515625H9.97656ZM26.3203 0.265625V14.4062H24.6016V0.265625H26.3203ZM21.9766 1.5V6.79688H17.1172V9.64062C19.3438 9.625 21.2656 9.51562 23.4609 9.14062L23.6172 10.5625C21.2109 10.9844 19.1016 11.0625 16.5703 11.0625H15.3359V5.42188H20.2109V2.90625H15.3203V1.5H21.9766ZM41.2891 11.2344V12.6875H28.3828V11.2344H41.2891ZM40.1641 1.57812V2.96875H38.1016V7.46875H40.1172V8.84375H29.4922V7.46875H31.4766V2.96875H29.4453V1.57812H40.1641ZM33.2109 7.46875H36.3828V2.96875H33.2109V7.46875Z" fill="#358FFE"/>
</svg>
