<svg width="41" height="14" viewBox="0 0 41 14" fill="none" xmlns="http://www.w3.org/2000/svg">
<path d="M11.7678 13.526H11.1098C11.0538 12.994 10.9978 11.524 10.9978 10.922V1.192C10.8018 0.911999 10.3818 0.659999 9.93377 0.505999L10.0598 0.127999C10.0738 0.0719992 10.1298 0.0439996 10.2278 0.0439996C10.7458 0.0719992 11.6278 0.24 12.0198 0.422C12.1598 0.478 12.2018 0.575999 12.1878 0.715999L12.1598 1.43V10.53C12.1598 11.356 12.0058 12.728 11.7678 13.526ZM9.20577 12.574H8.57577C8.50577 12.028 8.46377 10.684 8.46377 10.082V2.13C8.28177 1.878 7.88977 1.64 7.48377 1.5L7.60977 1.136C7.63777 1.08 7.67977 1.052 7.79177 1.052C8.26777 1.066 9.07977 1.234 9.44377 1.402C9.55577 1.458 9.61177 1.542 9.61177 1.696L9.56977 2.326V9.718C9.56977 10.502 9.42977 11.818 9.20577 12.574ZM5.59377 2.984L4.20777 3.278C4.08177 3.054 3.75977 2.788 3.40977 2.606L3.59177 2.256C3.61977 2.214 3.66177 2.186 3.77377 2.2C4.30577 2.284 5.08977 2.522 5.39777 2.704C5.52377 2.76 5.59377 2.858 5.59377 2.984ZM1.04377 9.69L0.847773 9.522C0.805773 9.48 0.805773 9.424 0.861773 9.368C2.63977 7.506 3.85777 5.21 4.20777 3.278L5.59377 2.984C5.59377 3.11 5.57977 3.222 5.55177 3.306C5.14577 5.476 3.60577 7.856 1.21177 9.69C1.15577 9.732 1.08577 9.746 1.04377 9.69ZM6.33577 9.032L3.95577 5.91L6.15377 7.38L6.68577 7.646C6.86777 7.968 7.07777 8.458 7.17577 8.724C7.24577 8.92 7.24577 9.06 7.18977 9.144C7.09177 9.312 6.79777 9.396 6.64377 9.312C6.54577 9.284 6.41977 9.144 6.33577 9.032ZM6.15377 7.38L6.06977 7.478L3.95577 5.91L4.36177 5.238L6.15377 7.38ZM7.03577 5.336L7.69377 5.994C7.45577 6.022 7.09177 6.106 6.85377 6.204C6.48977 6.036 6.15377 5.826 5.88777 5.588C5.84577 5.532 5.83177 5.49 5.85977 5.448L5.94377 5.28C6.26577 5.322 6.68577 5.336 7.03577 5.336ZM8.85577 5.266V5.952C8.51977 5.938 7.93177 5.966 7.69377 5.994L7.03577 5.336C7.45577 5.336 8.36577 5.322 8.85577 5.266ZM20.3053 2.186V2.9C19.8013 2.886 17.8693 2.928 17.4773 2.97C17.2113 2.984 16.7213 3.082 16.3853 3.18C15.9793 2.998 15.5873 2.746 15.2793 2.494C15.2233 2.452 15.2233 2.41 15.2373 2.354L15.3353 2.158C15.7133 2.242 16.2593 2.27 16.5953 2.27C17.1553 2.284 19.7033 2.228 20.3053 2.186ZM21.4813 2.942L20.1653 2.886L20.2493 2.2L20.7253 1.962C20.7953 1.92 20.8933 1.92 20.9773 1.962C21.1453 2.032 21.4813 2.228 21.6213 2.312C21.6773 2.354 21.6773 2.424 21.6493 2.508L21.4813 2.942ZM21.1593 5.336H20.1373C20.1933 4.846 20.1933 3.348 20.1653 2.886L21.4813 2.914C21.4673 3.572 21.2993 4.762 21.1593 5.336ZM21.3833 6.05L16.9873 6.19V5.476C17.5473 5.476 19.4653 5.42 19.8993 5.392L20.2073 5.294C20.5433 5.224 20.9633 5.224 21.1173 5.294L21.4393 5.476C21.4953 5.504 21.5233 5.56 21.5233 5.616C21.5233 5.798 21.4533 5.98 21.3833 6.05ZM24.7153 13.526H24.0433C23.9873 12.966 23.9453 11.426 23.9453 10.796V1.248C23.7073 0.954 23.2593 0.674 22.7553 0.505999L22.8813 0.127999C22.9093 0.0719992 22.9373 0.0439996 23.0493 0.0439996C23.6093 0.0719992 24.5473 0.253999 24.9813 0.436C25.1073 0.478 25.1633 0.589999 25.1633 0.744L25.1073 1.514V10.404C25.1073 11.258 24.9673 12.686 24.7153 13.526ZM17.1693 8.136H15.9653V6.19C15.7693 6.022 15.4613 5.882 15.1393 5.798L15.1953 5.49C15.2093 5.448 15.2653 5.406 15.3493 5.406C15.7693 5.406 16.8053 5.434 17.1973 5.476L17.1693 6.19V8.136ZM24.0573 8.108V8.752C22.0693 9.396 19.3673 9.858 17.5333 9.984C17.3653 9.998 17.1973 10.012 17.0573 10.012C16.5393 10.012 16.2033 9.704 16.0353 9.228C15.9933 9.102 15.9653 8.85 15.9653 8.57V6.848H17.1693V8.766C17.1693 8.934 17.2393 9.018 17.4353 9.018C19.2133 9.004 22.1813 8.654 24.0573 8.108ZM32.6927 4.608L31.5587 4.412C31.4047 4.188 31.1247 3.978 30.8027 3.824L30.9287 3.502C30.9427 3.446 30.9847 3.418 31.0967 3.418C31.5447 3.46 32.2447 3.614 32.5807 3.768C32.6927 3.81 32.7347 3.88 32.7207 4.006L32.6927 4.608ZM36.6687 4.146L35.5347 3.978C35.3807 3.796 35.0727 3.614 34.7647 3.516L34.8487 3.166C34.8627 3.138 34.9047 3.096 35.0307 3.096C35.4787 3.096 36.2207 3.194 36.5707 3.306C36.6827 3.334 36.7247 3.418 36.7247 3.544L36.6687 4.146ZM32.7487 7.296H31.7267L31.5587 4.412L32.6927 4.608L32.7487 7.296ZM36.4727 7.24H35.4647L35.5347 3.978L36.6687 4.146L36.4727 7.24ZM36.8507 1.864L37.3267 1.654C37.7747 1.668 38.4327 1.738 38.7127 1.836C38.8107 1.878 38.8667 1.962 38.8667 2.046C38.8667 2.326 38.6987 2.564 38.6007 2.634C38.3067 2.592 37.5227 2.592 37.1727 2.592C36.4727 2.592 32.1327 2.634 31.4607 2.676C31.1807 2.69 30.6207 2.788 30.3547 2.886C29.9207 2.732 29.4307 2.424 29.1087 2.144C29.0667 2.102 29.0667 2.06 29.0807 2.018L29.1787 1.822C29.6267 1.906 30.2427 1.962 30.5927 1.962C31.2927 1.962 36.0527 1.906 36.8507 1.864ZM36.8227 7.1L37.2847 6.876C37.7327 6.89 38.4047 6.974 38.6707 7.072C38.7687 7.1 38.8387 7.184 38.8387 7.268C38.8387 7.548 38.6707 7.8 38.5447 7.856C38.2647 7.814 37.4807 7.814 37.1447 7.814C36.4447 7.814 32.1747 7.856 31.5167 7.898C31.2367 7.912 30.6767 8.024 30.4107 8.108C29.9767 7.954 29.4867 7.66 29.1647 7.366C29.1227 7.338 29.1227 7.282 29.1367 7.24L29.2347 7.058C29.6827 7.128 30.2987 7.184 30.6487 7.184C31.3347 7.184 36.0387 7.142 36.8227 7.1ZM38.1387 10.25L38.6707 10.012C39.2027 10.04 39.9727 10.138 40.3087 10.25C40.4207 10.278 40.5047 10.376 40.5047 10.502C40.5047 10.768 40.3227 11.02 40.1687 11.09C39.8047 11.048 38.9367 11.02 38.5027 11.02C37.5227 11.006 31.2927 11.076 30.5367 11.132C30.1727 11.16 29.4167 11.3 29.0667 11.412C28.5487 11.23 28.0027 10.908 27.6527 10.6C27.5967 10.558 27.5827 10.502 27.6107 10.446L27.7087 10.236C28.1987 10.334 28.8707 10.39 29.3327 10.39C30.2007 10.404 37.1587 10.32 38.1387 10.25Z" fill="#358FFE"/>
</svg>
