<svg width="24" height="24" viewBox="0 0 24 24" fill="none" xmlns="http://www.w3.org/2000/svg">
<rect x="2" y="4.22461" width="20" height="17.5" fill="#AED2FF"/>
<path fill-rule="evenodd" clip-rule="evenodd" d="M11.9959 4.25748C10.7963 2.88131 8.79585 2.51112 7.29282 3.77128C5.78979 5.03144 5.57818 7.13836 6.75852 8.62875C7.73989 9.86791 10.7099 12.4814 11.6833 13.3273C11.7922 13.4219 11.8466 13.4692 11.9101 13.4878C11.9656 13.5041 12.0262 13.5041 12.0817 13.4878C12.1452 13.4692 12.1996 13.4219 12.3085 13.3273C13.2819 12.4814 16.2519 9.86791 17.2333 8.62875C18.4136 7.13836 18.2278 5.01818 16.699 3.77128C15.1701 2.52438 13.1955 2.88131 11.9959 4.25748Z" fill="#358FFE"/>
<rect x="2" y="14.2246" width="20" height="7.5" fill="#5DA5FE"/>
<path d="M2 11.7246H7L8.25 16.7246H2V11.7246Z" fill="#5DA5FE"/>
<path d="M17 11.7246H22V16.7246H15.75L17 11.7246Z" fill="#5DA5FE"/>
</svg>
