<svg width="90" height="90" viewBox="0 0 90 90" fill="none" xmlns="http://www.w3.org/2000/svg">
<circle cx="79.6875" cy="47.8125" r="5.625" fill="#A8CEFF"/>
<path fill-rule="evenodd" clip-rule="evenodd" d="M47.8125 8.4375L36.5625 8.4375L36.5625 39.375C36.5625 40.9283 37.8217 42.1875 39.375 42.1875L47.8125 42.1875L47.8125 50.625C47.8125 52.1783 49.0717 53.4375 50.625 53.4375H66.5625C69.6691 53.4375 72.1875 50.9191 72.1875 47.8125C72.1875 44.7059 69.6691 42.1875 66.5625 42.1875H59.0625V30.9375H47.8125V8.4375Z" fill="#6EAEFE"/>
<circle cx="10.3125" cy="42.1875" r="5.625" transform="rotate(180 10.3125 42.1875)" fill="#A8CEFF"/>
<path fill-rule="evenodd" clip-rule="evenodd" d="M23.4375 36.5625C20.3309 36.5625 17.8125 39.0809 17.8125 42.1875C17.8125 45.2941 20.3309 47.8125 23.4375 47.8125C23.4386 47.8125 23.4397 47.8125 23.4408 47.8125L30.9375 47.8125L30.9375 59.0625L42.1875 59.0625V81.5625H53.4375V50.625C53.4375 49.0717 52.1783 47.8125 50.625 47.8125H42.1875V39.375C42.1875 37.8217 40.9283 36.5625 39.375 36.5625H23.4375Z" fill="url(#paint0_linear_858_15973)"/>
<path d="M50.625 47.8125C52.1783 47.8125 53.4375 49.0717 53.4375 50.625L53.4375 53.4375L50.625 53.4375C49.0717 53.4375 47.8125 52.1783 47.8125 50.625L47.8125 47.8125L50.625 47.8125Z" fill="#358FFE"/>
<path d="M39.375 36.5625C40.9283 36.5625 42.1875 37.8217 42.1875 39.375L42.1875 42.1875L39.375 42.1875C37.8217 42.1875 36.5625 40.9283 36.5625 39.375L36.5625 36.5625L39.375 36.5625Z" fill="#358FFE"/>
<defs>
<linearGradient id="paint0_linear_858_15973" x1="17.8125" y1="36.5625" x2="53.4375" y2="81.5625" gradientUnits="userSpaceOnUse">
<stop stop-color="#A8CEFF"/>
<stop offset="1" stop-color="#358FFE"/>
</linearGradient>
</defs>
</svg>
