<svg width="90" height="90" viewBox="0 0 90 90" fill="none" xmlns="http://www.w3.org/2000/svg">
<circle cx="76.875" cy="47.8125" r="5.625" fill="#A8CEFF"/>
<path fill-rule="evenodd" clip-rule="evenodd" d="M45 8.4375L33.75 8.4375L33.75 39.375C33.75 40.9283 35.0092 42.1875 36.5625 42.1875L45 42.1875L45 50.625C45 52.1783 46.2592 53.4375 47.8125 53.4375H63.75C66.8566 53.4375 69.375 50.9191 69.375 47.8125C69.375 44.7059 66.8566 42.1875 63.75 42.1875H56.25V30.9375H45V8.4375Z" fill="#6EAEFE"/>
<circle cx="13.125" cy="42.1875" r="5.625" transform="rotate(180 13.125 42.1875)" fill="#A8CEFF"/>
<path fill-rule="evenodd" clip-rule="evenodd" d="M26.25 36.5625C23.1434 36.5625 20.625 39.0809 20.625 42.1875C20.625 45.2941 23.1434 47.8125 26.25 47.8125C26.2511 47.8125 26.2522 47.8125 26.2533 47.8125L33.75 47.8125L33.75 59.0625L45 59.0625V81.5625H56.25V50.625C56.25 49.0717 54.9908 47.8125 53.4375 47.8125H45V39.375C45 37.8217 43.7408 36.5625 42.1875 36.5625H26.25Z" fill="url(#paint0_linear_858_15974)"/>
<path d="M53.4375 47.8125C54.9908 47.8125 56.25 49.0717 56.25 50.625L56.25 53.4375L47.8125 53.4375C46.2592 53.4375 45 52.1783 45 50.625L45 47.8125L53.4375 47.8125Z" fill="#358FFE"/>
<path d="M42.1875 36.5625C43.7408 36.5625 45 37.8217 45 39.375L45 42.1875L36.5625 42.1875C35.0092 42.1875 33.75 40.9283 33.75 39.375L33.75 36.5625L42.1875 36.5625Z" fill="#358FFE"/>
<defs>
<linearGradient id="paint0_linear_858_15974" x1="20.625" y1="36.5625" x2="56.25" y2="81.5625" gradientUnits="userSpaceOnUse">
<stop stop-color="#A8CEFF"/>
<stop offset="1" stop-color="#358FFE"/>
</linearGradient>
</defs>
</svg>
