<svg width="90" height="90" viewBox="0 0 90 90" fill="none" xmlns="http://www.w3.org/2000/svg">
<circle cx="82.5" cy="47.8125" r="5.625" fill="#A8CEFF"/>
<path fill-rule="evenodd" clip-rule="evenodd" d="M50.625 8.4375L39.375 8.4375L39.375 39.375C39.375 40.9283 40.6342 42.1875 42.1875 42.1875L50.625 42.1875L50.625 50.625C50.625 52.1783 51.8842 53.4375 53.4375 53.4375H69.375C72.4816 53.4375 75 50.9191 75 47.8125C75 44.7059 72.4816 42.1875 69.375 42.1875H61.875V30.9375H50.625V8.4375Z" fill="#6EAEFE"/>
<circle cx="7.5" cy="42.1875" r="5.625" transform="rotate(180 7.5 42.1875)" fill="#A8CEFF"/>
<path fill-rule="evenodd" clip-rule="evenodd" d="M20.625 36.5625C17.5184 36.5625 15 39.0809 15 42.1875C15 45.2941 17.5184 47.8125 20.625 47.8125C20.6261 47.8125 20.6272 47.8125 20.6283 47.8125L28.125 47.8125L28.125 59.0625L39.375 59.0625V81.5625H50.625V50.625C50.625 49.0717 49.3658 47.8125 47.8125 47.8125H39.375V39.375C39.375 37.8217 38.1158 36.5625 36.5625 36.5625H20.625Z" fill="url(#paint0_linear_858_15975)"/>
<defs>
<linearGradient id="paint0_linear_858_15975" x1="15" y1="36.5625" x2="50.625" y2="81.5625" gradientUnits="userSpaceOnUse">
<stop stop-color="#A8CEFF"/>
<stop offset="1" stop-color="#358FFE"/>
</linearGradient>
</defs>
</svg>
