<svg width="10" height="12" viewBox="0 0 10 12" fill="none" xmlns="http://www.w3.org/2000/svg">
<path d="M0.359375 12V0.6875H4.85938C7.35938 0.6875 8.60938 1.89062 8.60938 3.59375C8.60938 4.92188 7.75 5.75 6.57812 6.01562V6.125C7.85938 6.1875 9.0625 7.20312 9.0625 8.875C9.0625 10.6719 7.71875 12 5.15625 12H0.359375ZM4.6875 10.0625C6.04688 10.0625 6.625 9.5 6.625 8.65625C6.625 7.70312 5.90625 7.03125 4.75 7.03125H2.70312V10.0625H4.6875ZM4.51562 5.42188C5.5 5.42188 6.23438 4.875 6.23438 3.96875C6.23438 3.15625 5.64062 2.59375 4.5625 2.59375H2.70312V5.42188H4.51562Z" fill="#151516"/>
</svg>
