<svg width="24" height="24" viewBox="0 0 24 24" fill="none" xmlns="http://www.w3.org/2000/svg">
<rect x="2.40039" y="3.25" width="20" height="18.75" fill="#E1E1E2"/>
<rect x="2.40039" y="3.25" width="20" height="2.5" fill="#151516"/>
<line x1="9.90039" y1="2" x2="9.90039" y2="4.5" stroke="#E1E1E2"/>
<line x1="4.90039" y1="2" x2="4.90039" y2="4.5" stroke="#E1E1E2"/>
<line x1="14.9004" y1="2" x2="14.9004" y2="4.5" stroke="#E1E1E2"/>
<line x1="19.9004" y1="2" x2="19.9004" y2="4.5" stroke="#E1E1E2"/>
<path d="M10.3372 8.91211V17.75H8.73804V10.4624H8.68921L6.62622 11.7808V10.3281L8.81128 8.91211H10.3372ZM11.9856 17.75V16.6025L15.1106 13.5874C16.0017 12.6963 16.4656 12.1714 16.4656 11.4268C16.4656 10.6089 15.8186 10.084 14.9519 10.084C14.0364 10.084 13.4504 10.6577 13.4626 11.5488H11.949C11.9368 9.87646 13.1941 8.79004 14.9641 8.79004C16.7708 8.79004 17.9915 9.86426 17.9915 11.3535C17.9915 12.3545 17.5032 13.1602 15.7698 14.7959L14.1951 16.3584V16.4194H18.1257V17.75H11.9856Z" fill="#151516"/>
</svg>
