<svg width="27" height="15" viewBox="0 0 27 15" fill="none" xmlns="http://www.w3.org/2000/svg">
<path d="M11.875 1.78125V3.17188C11.8594 4.875 11.8594 6.78125 11.3594 9.57812L10.1094 9.4375C10.6406 6.78125 10.6406 4.82812 10.6406 3.17188V2.79688H2.07812V1.78125H11.875ZM13.3906 11.2812V12.2969H0.734375V11.2812H5.70312V6.3125H6.90625V11.2812H13.3906ZM22 1.5V2.51562H16.6406V6.70312C19.6719 6.70312 21.3906 6.64062 23.4062 6.23438L23.5312 7.25C21.4531 7.625 19.6875 7.73438 16.5625 7.73438H15.4219V1.5H22ZM26.0312 9.40625V14.2656H24.8125V10.4219H16.6875V9.40625H26.0312ZM26.0312 0.390625V8.65625H24.8125V0.390625H26.0312Z" fill="#151516"/>
</svg>
