<svg width="10" height="13" viewBox="0 0 10 13" fill="none" xmlns="http://www.w3.org/2000/svg">
<path d="M7.5625 3.53125C7.4375 2.42188 6.42188 1.78125 5.0625 1.78125C3.5625 1.78125 2.57812 2.5625 2.57812 3.64062C2.57812 4.82812 3.90625 5.26562 4.76562 5.48438L5.89062 5.79688C7.10938 6.10938 9.09375 6.8125 9.09375 8.92188C9.09375 10.7656 7.60938 12.2031 4.98438 12.2031C2.54688 12.2031 1.03125 10.9375 0.90625 9.0625H2.34375C2.46875 10.3281 3.64062 10.9219 4.98438 10.9219C6.54688 10.9219 7.71875 10.125 7.71875 8.89062C7.71875 7.79688 6.67188 7.375 5.48438 7.03125L4.09375 6.65625C2.3125 6.14062 1.21875 5.23438 1.21875 3.70312C1.21875 1.79688 2.92188 0.53125 5.10938 0.53125C7.29688 0.53125 8.875 1.8125 8.9375 3.53125H7.5625Z" fill="#151516"/>
<path d="M0.140625 6.90625H9.85938V7.99219H0.140625V6.90625Z" fill="#151516"/>
</svg>
