<svg width="41" height="14" viewBox="0 0 41 14" fill="none" xmlns="http://www.w3.org/2000/svg">
<path d="M11.55 13.526H10.892C10.836 12.994 10.78 11.524 10.78 10.922V1.192C10.584 0.911999 10.164 0.659999 9.716 0.505999L9.842 0.127999C9.856 0.0719992 9.912 0.0439996 10.01 0.0439996C10.528 0.0719992 11.41 0.24 11.802 0.422C11.942 0.478 11.984 0.575999 11.97 0.715999L11.942 1.43V10.53C11.942 11.356 11.788 12.728 11.55 13.526ZM8.988 12.574H8.358C8.288 12.028 8.246 10.684 8.246 10.082V2.13C8.064 1.878 7.672 1.64 7.266 1.5L7.392 1.136C7.42 1.08 7.462 1.052 7.574 1.052C8.05 1.066 8.862 1.234 9.226 1.402C9.338 1.458 9.394 1.542 9.394 1.696L9.352 2.326V9.718C9.352 10.502 9.212 11.818 8.988 12.574ZM5.376 2.984L3.99 3.278C3.864 3.054 3.542 2.788 3.192 2.606L3.374 2.256C3.402 2.214 3.444 2.186 3.556 2.2C4.088 2.284 4.872 2.522 5.18 2.704C5.306 2.76 5.376 2.858 5.376 2.984ZM0.826 9.69L0.63 9.522C0.588 9.48 0.588 9.424 0.644 9.368C2.422 7.506 3.64 5.21 3.99 3.278L5.376 2.984C5.376 3.11 5.362 3.222 5.334 3.306C4.928 5.476 3.388 7.856 0.994 9.69C0.938 9.732 0.868 9.746 0.826 9.69ZM6.118 9.032L3.738 5.91L5.936 7.38L6.468 7.646C6.65 7.968 6.86 8.458 6.958 8.724C7.028 8.92 7.028 9.06 6.972 9.144C6.874 9.312 6.58 9.396 6.426 9.312C6.328 9.284 6.202 9.144 6.118 9.032ZM5.936 7.38L5.852 7.478L3.738 5.91L4.144 5.238L5.936 7.38ZM6.818 5.336L7.476 5.994C7.238 6.022 6.874 6.106 6.636 6.204C6.272 6.036 5.936 5.826 5.67 5.588C5.628 5.532 5.614 5.49 5.642 5.448L5.726 5.28C6.048 5.322 6.468 5.336 6.818 5.336ZM8.638 5.266V5.952C8.302 5.938 7.714 5.966 7.476 5.994L6.818 5.336C7.238 5.336 8.148 5.322 8.638 5.266ZM20.0875 2.186V2.9C19.5835 2.886 17.6515 2.928 17.2595 2.97C16.9935 2.984 16.5035 3.082 16.1675 3.18C15.7615 2.998 15.3695 2.746 15.0615 2.494C15.0055 2.452 15.0055 2.41 15.0195 2.354L15.1175 2.158C15.4955 2.242 16.0415 2.27 16.3775 2.27C16.9375 2.284 19.4855 2.228 20.0875 2.186ZM21.2635 2.942L19.9475 2.886L20.0315 2.2L20.5075 1.962C20.5775 1.92 20.6755 1.92 20.7595 1.962C20.9275 2.032 21.2635 2.228 21.4035 2.312C21.4595 2.354 21.4595 2.424 21.4315 2.508L21.2635 2.942ZM20.9415 5.336H19.9195C19.9755 4.846 19.9755 3.348 19.9475 2.886L21.2635 2.914C21.2495 3.572 21.0815 4.762 20.9415 5.336ZM21.1655 6.05L16.7695 6.19V5.476C17.3295 5.476 19.2475 5.42 19.6815 5.392L19.9895 5.294C20.3255 5.224 20.7455 5.224 20.8995 5.294L21.2215 5.476C21.2775 5.504 21.3055 5.56 21.3055 5.616C21.3055 5.798 21.2355 5.98 21.1655 6.05ZM24.4975 13.526H23.8255C23.7695 12.966 23.7275 11.426 23.7275 10.796V1.248C23.4895 0.954 23.0415 0.674 22.5375 0.505999L22.6635 0.127999C22.6915 0.0719992 22.7195 0.0439996 22.8315 0.0439996C23.3915 0.0719992 24.3295 0.253999 24.7635 0.436C24.8895 0.478 24.9455 0.589999 24.9455 0.744L24.8895 1.514V10.404C24.8895 11.258 24.7495 12.686 24.4975 13.526ZM16.9515 8.136H15.7475V6.19C15.5515 6.022 15.2435 5.882 14.9215 5.798L14.9775 5.49C14.9915 5.448 15.0475 5.406 15.1315 5.406C15.5515 5.406 16.5875 5.434 16.9795 5.476L16.9515 6.19V8.136ZM23.8395 8.108V8.752C21.8515 9.396 19.1495 9.858 17.3155 9.984C17.1475 9.998 16.9795 10.012 16.8395 10.012C16.3215 10.012 15.9855 9.704 15.8175 9.228C15.7755 9.102 15.7475 8.85 15.7475 8.57V6.848H16.9515V8.766C16.9515 8.934 17.0215 9.018 17.2175 9.018C18.9955 9.004 21.9635 8.654 23.8395 8.108ZM32.475 4.608L31.341 4.412C31.187 4.188 30.907 3.978 30.585 3.824L30.711 3.502C30.725 3.446 30.767 3.418 30.879 3.418C31.327 3.46 32.027 3.614 32.363 3.768C32.475 3.81 32.517 3.88 32.503 4.006L32.475 4.608ZM36.451 4.146L35.317 3.978C35.163 3.796 34.855 3.614 34.547 3.516L34.631 3.166C34.645 3.138 34.687 3.096 34.813 3.096C35.261 3.096 36.003 3.194 36.353 3.306C36.465 3.334 36.507 3.418 36.507 3.544L36.451 4.146ZM32.531 7.296H31.509L31.341 4.412L32.475 4.608L32.531 7.296ZM36.255 7.24H35.247L35.317 3.978L36.451 4.146L36.255 7.24ZM36.633 1.864L37.109 1.654C37.557 1.668 38.215 1.738 38.495 1.836C38.593 1.878 38.649 1.962 38.649 2.046C38.649 2.326 38.481 2.564 38.383 2.634C38.089 2.592 37.305 2.592 36.955 2.592C36.255 2.592 31.915 2.634 31.243 2.676C30.963 2.69 30.403 2.788 30.137 2.886C29.703 2.732 29.213 2.424 28.891 2.144C28.849 2.102 28.849 2.06 28.863 2.018L28.961 1.822C29.409 1.906 30.025 1.962 30.375 1.962C31.075 1.962 35.835 1.906 36.633 1.864ZM36.605 7.1L37.067 6.876C37.515 6.89 38.187 6.974 38.453 7.072C38.551 7.1 38.621 7.184 38.621 7.268C38.621 7.548 38.453 7.8 38.327 7.856C38.047 7.814 37.263 7.814 36.927 7.814C36.227 7.814 31.957 7.856 31.299 7.898C31.019 7.912 30.459 8.024 30.193 8.108C29.759 7.954 29.269 7.66 28.947 7.366C28.905 7.338 28.905 7.282 28.919 7.24L29.017 7.058C29.465 7.128 30.081 7.184 30.431 7.184C31.117 7.184 35.821 7.142 36.605 7.1ZM37.921 10.25L38.453 10.012C38.985 10.04 39.755 10.138 40.091 10.25C40.203 10.278 40.287 10.376 40.287 10.502C40.287 10.768 40.105 11.02 39.951 11.09C39.587 11.048 38.719 11.02 38.285 11.02C37.305 11.006 31.075 11.076 30.319 11.132C29.955 11.16 29.199 11.3 28.849 11.412C28.331 11.23 27.785 10.908 27.435 10.6C27.379 10.558 27.365 10.502 27.393 10.446L27.491 10.236C27.981 10.334 28.653 10.39 29.115 10.39C29.983 10.404 36.941 10.32 37.921 10.25Z" fill="#151516"/>
</svg>
