<svg width="42" height="15" viewBox="0 0 42 15" fill="none" xmlns="http://www.w3.org/2000/svg">
<path d="M4.94531 4.32812C4.94531 6.53125 6.02344 8.92188 7.86719 10.0156L7.16406 10.9688C5.82812 10.1562 4.86719 8.67188 4.38281 6.98438C3.86719 8.82812 2.83594 10.4141 1.44531 11.2656L0.664062 10.3438C2.58594 9.21875 3.75781 6.75 3.75781 4.375V1.6875H4.94531V4.32812ZM12.7266 0.375V14.2656H11.5391V0.375H12.7266ZM9.85156 0.671875V13.5625H8.69531V6.40625H6.33594V5.35938H8.69531V0.671875H9.85156ZM26.1172 0.375V14.2969H24.8984V0.375H26.1172ZM21.8984 1.67188V6.60938H16.7109V9.89062C19.0156 9.89062 21.0703 9.78906 23.5547 9.39062L23.6797 10.4219C21.1172 10.8281 19.0078 10.9219 16.6172 10.9219H15.4609V5.60938H20.6641V2.6875H15.4297V1.67188H21.8984ZM41.1953 11.4375V12.4844H28.4766V11.4375H41.1953ZM39.9766 1.78125V2.79688H37.7734V7.65625H39.9453V8.65625H29.6328V7.65625H31.8047V2.79688H29.6016V1.78125H39.9766ZM33.0234 7.65625H36.5703V2.79688H33.0234V7.65625Z" fill="#151516"/>
</svg>
