<svg width="54" height="54" viewBox="0 0 54 54" fill="none" xmlns="http://www.w3.org/2000/svg">
<rect x="3" y="7" width="48" height="42" fill="#AED2FF"/>
<path fill-rule="evenodd" clip-rule="evenodd" d="M26.9918 6.51495C24.5926 3.76261 20.5917 3.02224 17.5856 5.54256C14.5796 8.06287 14.1564 12.2767 16.517 15.2575C18.4798 17.7358 24.4197 22.9628 26.3665 24.6546C26.5843 24.8438 26.6932 24.9385 26.8203 24.9757C26.9311 25.0081 27.0524 25.0081 27.1633 24.9757C27.2903 24.9385 27.3992 24.8438 27.617 24.6546C29.5638 22.9628 35.5038 17.7358 37.4665 15.2575C39.8272 12.2767 39.4557 8.03636 36.3979 5.54256C33.3402 3.04875 29.391 3.76261 26.9918 6.51495Z" fill="#358FFE"/>
<rect x="3" y="31" width="48" height="18" fill="#5DA5FE"/>
<path d="M3 25H15L18 37H3V25Z" fill="#5DA5FE"/>
<path d="M39 25H51V37H36L39 25Z" fill="#5DA5FE"/>
</svg>
