<svg width="32" height="32" viewBox="0 0 32 32" fill="none" xmlns="http://www.w3.org/2000/svg">
<mask id="mask0_661_17794" style="mask-type:luminance" maskUnits="userSpaceOnUse" x="2" y="7" width="10" height="18">
<path d="M2 7.72754H11.5603V24.286H2V7.72754Z" fill="white"/>
</mask>
<g mask="url(#mask0_661_17794)">
<mask id="mask1_661_17794" style="mask-type:luminance" maskUnits="userSpaceOnUse" x="2" y="2" width="28" height="28">
<path d="M29.0378 13.4601H15.9961V18.8672H23.503C22.8032 22.3024 19.8768 24.2744 15.9961 24.2744C11.4156 24.2744 7.72567 20.5848 7.72567 16.0046C7.72567 11.4245 11.4156 7.7349 15.9961 7.7349C17.9682 7.7349 19.7496 8.43468 21.1491 9.57969L25.2207 5.50849C22.7396 3.34563 19.5587 2.00977 15.9961 2.00977C8.2346 2.00977 2 8.24383 2 16.0046C2 23.7655 8.2346 29.9995 15.9961 29.9995C22.994 29.9995 29.3559 24.9105 29.3559 16.0046C29.3559 15.1777 29.2286 14.287 29.0378 13.4601Z" fill="white"/>
</mask>
<g mask="url(#mask1_661_17794)">
<path d="M0.728516 24.2739V7.73438L11.5436 16.0041L0.728516 24.2739Z" fill="#FBBC05"/>
</g>
</g>
<mask id="mask2_661_17794" style="mask-type:luminance" maskUnits="userSpaceOnUse" x="2" y="2" width="28" height="15">
<path d="M2 2H29.3559V16.0065H2V2Z" fill="white"/>
</mask>
<g mask="url(#mask2_661_17794)">
<mask id="mask3_661_17794" style="mask-type:luminance" maskUnits="userSpaceOnUse" x="2" y="2" width="28" height="28">
<path d="M29.0378 13.4601H15.9961V18.8672H23.503C22.8032 22.3024 19.8768 24.2744 15.9961 24.2744C11.4156 24.2744 7.72567 20.5848 7.72567 16.0046C7.72567 11.4245 11.4156 7.7349 15.9961 7.7349C17.9682 7.7349 19.7496 8.43468 21.1491 9.57969L25.2207 5.50849C22.7396 3.34563 19.5587 2.00977 15.9961 2.00977C8.2346 2.00977 2 8.24383 2 16.0046C2 23.7655 8.2346 29.9995 15.9961 29.9995C22.994 29.9995 29.3559 24.9105 29.3559 16.0046C29.3559 15.1777 29.2286 14.287 29.0378 13.4601Z" fill="white"/>
</mask>
<g mask="url(#mask3_661_17794)">
<path d="M0.728516 7.73476L11.5436 16.0045L15.9969 12.1241L31.2653 9.64317V0.737305H0.728516V7.73476Z" fill="#EA4335"/>
</g>
</g>
<mask id="mask4_661_17794" style="mask-type:luminance" maskUnits="userSpaceOnUse" x="2" y="2" width="28" height="28">
<path d="M2 2H29.3559V29.9999H2V2Z" fill="white"/>
</mask>
<g mask="url(#mask4_661_17794)">
<mask id="mask5_661_17794" style="mask-type:luminance" maskUnits="userSpaceOnUse" x="2" y="2" width="28" height="28">
<path d="M29.0378 13.4601H15.9961V18.8672H23.503C22.8032 22.3024 19.8768 24.2744 15.9961 24.2744C11.4156 24.2744 7.72567 20.5848 7.72567 16.0046C7.72567 11.4245 11.4156 7.7349 15.9961 7.7349C17.9682 7.7349 19.7496 8.43468 21.1491 9.57969L25.2207 5.50849C22.7396 3.34563 19.5587 2.00977 15.9961 2.00977C8.2346 2.00977 2 8.24383 2 16.0046C2 23.7655 8.2346 29.9995 15.9961 29.9995C22.994 29.9995 29.3559 24.9105 29.3559 16.0046C29.3559 15.1777 29.2286 14.287 29.0378 13.4601Z" fill="white"/>
</mask>
<g mask="url(#mask5_661_17794)">
<path d="M0.728516 24.2742L19.814 9.64317L24.8398 10.2793L31.2653 0.737305V31.2717H0.728516V24.2742Z" fill="#34A853"/>
</g>
</g>
<mask id="mask6_661_17794" style="mask-type:luminance" maskUnits="userSpaceOnUse" x="8" y="7" width="22" height="23">
<path d="M8.98828 7.72656H29.3553V29.9992H8.98828V7.72656Z" fill="white"/>
</mask>
<g mask="url(#mask6_661_17794)">
<mask id="mask7_661_17794" style="mask-type:luminance" maskUnits="userSpaceOnUse" x="2" y="2" width="28" height="28">
<path d="M29.0378 13.4601H15.9961V18.8672H23.503C22.8032 22.3024 19.8768 24.2744 15.9961 24.2744C11.4156 24.2744 7.72567 20.5848 7.72567 16.0046C7.72567 11.4245 11.4156 7.7349 15.9961 7.7349C17.9682 7.7349 19.7496 8.43468 21.1491 9.57969L25.2207 5.50849C22.7396 3.34563 19.5587 2.00977 15.9961 2.00977C8.2346 2.00977 2 8.24383 2 16.0046C2 23.7655 8.2346 29.9995 15.9961 29.9995C22.994 29.9995 29.3559 24.9105 29.3559 16.0046C29.3559 15.1777 29.2286 14.287 29.0378 13.4601Z" fill="white"/>
</mask>
<g mask="url(#mask7_661_17794)">
<path d="M31.2644 31.2713L11.5428 16.0041L8.99805 14.0957L31.2644 7.73438V31.2713Z" fill="#4285F4"/>
</g>
</g>
</svg>
