<svg width="32" height="32" viewBox="0 0 32 32" fill="none" xmlns="http://www.w3.org/2000/svg">
<path d="M9.10007 29.901C7.4349 29.8252 6.53033 29.5481 5.92867 29.3135C5.13145 29.0031 4.56308 28.6336 3.96475 28.0361C3.36642 27.4386 2.99611 26.8702 2.68737 26.073C2.4527 25.4713 2.17559 24.5668 2.09986 22.9016C2.01664 21.1016 2 20.5615 2 16.0012C2 11.441 2.01831 10.9017 2.09903 9.10007C2.17476 7.4349 2.45353 6.53199 2.68654 5.92867C2.99694 5.13145 3.36725 4.56308 3.96392 3.96392C4.56142 3.36642 5.12979 2.99527 5.92784 2.68654C6.5295 2.45187 7.43407 2.17476 9.09924 2.09903C10.9001 2.01664 11.441 2 15.9996 2C20.5599 2 21.0991 2.01831 22.9008 2.09903C24.5659 2.17476 25.4688 2.45353 26.0722 2.68654C26.8694 2.99527 27.4378 3.36642 28.0361 3.96392C28.6344 4.56142 29.0031 5.13062 29.3135 5.92784C29.5481 6.5295 29.8252 7.43407 29.901 9.09924C29.9834 10.9009 30 11.4401 30 16.0004C30 20.559 29.9834 21.0999 29.901 22.9016C29.8252 24.5668 29.5465 25.4713 29.3135 26.073C29.0031 26.8702 28.6336 27.4386 28.0361 28.0361C27.4386 28.6336 26.8694 29.0031 26.0722 29.3135C25.4705 29.5481 24.5659 29.8252 22.9008 29.901C21.1008 29.9834 20.5599 30 15.9996 30C11.441 30 10.9001 29.9842 9.10007 29.901Z" fill="url(#paint0_linear_826_17116)"/>
<path d="M9.10007 29.901C7.4349 29.8252 6.53033 29.5481 5.92867 29.3135C5.13145 29.0031 4.56308 28.6336 3.96475 28.0361C3.36642 27.4386 2.99611 26.8702 2.68737 26.073C2.4527 25.4713 2.17559 24.5668 2.09986 22.9016C2.01664 21.1016 2 20.5615 2 16.0012C2 11.441 2.01831 10.9017 2.09903 9.10007C2.17476 7.4349 2.45353 6.53199 2.68654 5.92867C2.99694 5.13145 3.36725 4.56308 3.96392 3.96392C4.56142 3.36642 5.12979 2.99527 5.92784 2.68654C6.5295 2.45187 7.43407 2.17476 9.09924 2.09903C10.9001 2.01664 11.441 2 15.9996 2C20.5599 2 21.0991 2.01831 22.9008 2.09903C24.5659 2.17476 25.4688 2.45353 26.0722 2.68654C26.8694 2.99527 27.4378 3.36642 28.0361 3.96392C28.6344 4.56142 29.0031 5.13062 29.3135 5.92784C29.5481 6.5295 29.8252 7.43407 29.901 9.09924C29.9834 10.9009 30 11.4401 30 16.0004C30 20.559 29.9834 21.0999 29.901 22.9016C29.8252 24.5668 29.5465 25.4713 29.3135 26.073C29.0031 26.8702 28.6336 27.4386 28.0361 28.0361C27.4386 28.6336 26.8694 29.0031 26.0722 29.3135C25.4705 29.5481 24.5659 29.8252 22.9008 29.901C21.1008 29.9834 20.5599 30 15.9996 30C11.441 30 10.9001 29.9842 9.10007 29.901Z" fill="url(#paint1_radial_826_17116)"/>
<path d="M9.10007 29.901C7.4349 29.8252 6.53033 29.5481 5.92867 29.3135C5.13145 29.0031 4.56308 28.6336 3.96475 28.0361C3.36642 27.4386 2.99611 26.8702 2.68737 26.073C2.4527 25.4713 2.17559 24.5668 2.09986 22.9016C2.01664 21.1016 2 20.5615 2 16.0012C2 11.441 2.01831 10.9017 2.09903 9.10007C2.17476 7.4349 2.45353 6.53199 2.68654 5.92867C2.99694 5.13145 3.36725 4.56308 3.96392 3.96392C4.56142 3.36642 5.12979 2.99527 5.92784 2.68654C6.5295 2.45187 7.43407 2.17476 9.09924 2.09903C10.9001 2.01664 11.441 2 15.9996 2C20.5599 2 21.0991 2.01831 22.9008 2.09903C24.5659 2.17476 25.4688 2.45353 26.0722 2.68654C26.8694 2.99527 27.4378 3.36642 28.0361 3.96392C28.6344 4.56142 29.0031 5.13062 29.3135 5.92784C29.5481 6.5295 29.8252 7.43407 29.901 9.09924C29.9834 10.9009 30 11.4401 30 16.0004C30 20.559 29.9834 21.0999 29.901 22.9016C29.8252 24.5668 29.5465 25.4713 29.3135 26.073C29.0031 26.8702 28.6336 27.4386 28.0361 28.0361C27.4386 28.6336 26.8694 29.0031 26.0722 29.3135C25.4705 29.5481 24.5659 29.8252 22.9008 29.901C21.1008 29.9834 20.5599 30 15.9996 30C11.441 30 10.9001 29.9842 9.10007 29.901Z" fill="url(#paint2_radial_826_17116)"/>
<path d="M9.10007 29.901C7.4349 29.8252 6.53033 29.5481 5.92867 29.3135C5.13145 29.0031 4.56308 28.6336 3.96475 28.0361C3.36642 27.4386 2.99611 26.8702 2.68737 26.073C2.4527 25.4713 2.17559 24.5668 2.09986 22.9016C2.01664 21.1016 2 20.5615 2 16.0012C2 11.441 2.01831 10.9017 2.09903 9.10007C2.17476 7.4349 2.45353 6.53199 2.68654 5.92867C2.99694 5.13145 3.36725 4.56308 3.96392 3.96392C4.56142 3.36642 5.12979 2.99527 5.92784 2.68654C6.5295 2.45187 7.43407 2.17476 9.09924 2.09903C10.9001 2.01664 11.441 2 15.9996 2C20.5599 2 21.0991 2.01831 22.9008 2.09903C24.5659 2.17476 25.4688 2.45353 26.0722 2.68654C26.8694 2.99527 27.4378 3.36642 28.0361 3.96392C28.6344 4.56142 29.0031 5.13062 29.3135 5.92784C29.5481 6.5295 29.8252 7.43407 29.901 9.09924C29.9834 10.9009 30 11.4401 30 16.0004C30 20.559 29.9834 21.0999 29.901 22.9016C29.8252 24.5668 29.5465 25.4713 29.3135 26.073C29.0031 26.8702 28.6336 27.4386 28.0361 28.0361C27.4386 28.6336 26.8694 29.0031 26.0722 29.3135C25.4705 29.5481 24.5659 29.8252 22.9008 29.901C21.1008 29.9834 20.5599 30 15.9996 30C11.441 30 10.9001 29.9842 9.10007 29.901Z" fill="url(#paint3_radial_826_17116)" fill-opacity="0.7"/>
<path d="M9.10007 29.901C7.4349 29.8252 6.53033 29.5481 5.92867 29.3135C5.13145 29.0031 4.56308 28.6336 3.96475 28.0361C3.36642 27.4386 2.99611 26.8702 2.68737 26.073C2.4527 25.4713 2.17559 24.5668 2.09986 22.9016C2.01664 21.1016 2 20.5615 2 16.0012C2 11.441 2.01831 10.9017 2.09903 9.10007C2.17476 7.4349 2.45353 6.53199 2.68654 5.92867C2.99694 5.13145 3.36725 4.56308 3.96392 3.96392C4.56142 3.36642 5.12979 2.99527 5.92784 2.68654C6.5295 2.45187 7.43407 2.17476 9.09924 2.09903C10.9001 2.01664 11.441 2 15.9996 2C20.5599 2 21.0991 2.01831 22.9008 2.09903C24.5659 2.17476 25.4688 2.45353 26.0722 2.68654C26.8694 2.99527 27.4378 3.36642 28.0361 3.96392C28.6344 4.56142 29.0031 5.13062 29.3135 5.92784C29.5481 6.5295 29.8252 7.43407 29.901 9.09924C29.9834 10.9009 30 11.4401 30 16.0004C30 20.559 29.9834 21.0999 29.901 22.9016C29.8252 24.5668 29.5465 25.4713 29.3135 26.073C29.0031 26.8702 28.6336 27.4386 28.0361 28.0361C27.4386 28.6336 26.8694 29.0031 26.0722 29.3135C25.4705 29.5481 24.5659 29.8252 22.9008 29.901C21.1008 29.9834 20.5599 30 15.9996 30C11.441 30 10.9001 29.9842 9.10007 29.901Z" fill="url(#paint4_radial_826_17116)"/>
<path d="M9.10007 29.901C7.4349 29.8252 6.53033 29.5481 5.92867 29.3135C5.13145 29.0031 4.56308 28.6336 3.96475 28.0361C3.36642 27.4386 2.99611 26.8702 2.68737 26.073C2.4527 25.4713 2.17559 24.5668 2.09986 22.9016C2.01664 21.1016 2 20.5615 2 16.0012C2 11.441 2.01831 10.9017 2.09903 9.10007C2.17476 7.4349 2.45353 6.53199 2.68654 5.92867C2.99694 5.13145 3.36725 4.56308 3.96392 3.96392C4.56142 3.36642 5.12979 2.99527 5.92784 2.68654C6.5295 2.45187 7.43407 2.17476 9.09924 2.09903C10.9001 2.01664 11.441 2 15.9996 2C20.5599 2 21.0991 2.01831 22.9008 2.09903C24.5659 2.17476 25.4688 2.45353 26.0722 2.68654C26.8694 2.99527 27.4378 3.36642 28.0361 3.96392C28.6344 4.56142 29.0031 5.13062 29.3135 5.92784C29.5481 6.5295 29.8252 7.43407 29.901 9.09924C29.9834 10.9009 30 11.4401 30 16.0004C30 20.559 29.9834 21.0999 29.901 22.9016C29.8252 24.5668 29.5465 25.4713 29.3135 26.073C29.0031 26.8702 28.6336 27.4386 28.0361 28.0361C27.4386 28.6336 26.8694 29.0031 26.0722 29.3135C25.4705 29.5481 24.5659 29.8252 22.9008 29.901C21.1008 29.9834 20.5599 30 15.9996 30C11.441 30 10.9001 29.9842 9.10007 29.901Z" fill="url(#paint5_radial_826_17116)"/>
<path d="M12.5655 15.9642C12.5655 14.0873 14.0867 12.5654 15.9636 12.5654C17.8406 12.5654 19.3626 14.0873 19.3626 15.9642C19.3626 17.8411 17.8406 19.363 15.9636 19.363C14.0867 19.363 12.5655 17.8411 12.5655 15.9642ZM10.7281 15.9642C10.7281 18.8557 13.072 21.1995 15.9636 21.1995C18.8552 21.1995 21.1992 18.8557 21.1992 15.9642C21.1992 13.0727 18.8552 10.7289 15.9636 10.7289C13.072 10.7289 10.7282 13.0726 10.7282 15.9642H10.7281ZM20.183 10.5213C20.1829 10.7633 20.2546 10.9998 20.3889 11.2011C20.5233 11.4023 20.7143 11.5592 20.9379 11.6519C21.1614 11.7446 21.4074 11.7689 21.6448 11.7218C21.8821 11.6747 22.1002 11.5583 22.2714 11.3872C22.4425 11.2162 22.5592 10.9982 22.6065 10.7609C22.6538 10.5236 22.6296 10.2776 22.5371 10.054C22.4446 9.83042 22.2879 9.63927 22.0867 9.50475C21.8855 9.37024 21.649 9.29839 21.407 9.29829H21.4065C21.0822 9.29844 20.7711 9.42732 20.5417 9.65663C20.3123 9.88594 20.1833 10.1969 20.183 10.5213ZM11.8444 24.2633C10.8504 24.218 10.31 24.0525 9.95098 23.9126C9.47495 23.7273 9.1353 23.5065 8.77819 23.1499C8.42108 22.7933 8.20003 22.454 8.01552 21.978C7.87555 21.6191 7.70997 21.0787 7.66478 20.0846C7.61535 19.0099 7.60548 18.6871 7.60548 15.9644C7.60548 13.2416 7.61616 12.9197 7.66478 11.8441C7.71005 10.8501 7.87686 10.3107 8.01552 9.95073C8.20085 9.47471 8.42157 9.13508 8.77819 8.77798C9.13481 8.42089 9.47413 8.19985 9.95098 8.01535C10.3099 7.87538 10.8504 7.70981 11.8444 7.66462C12.9192 7.61519 13.242 7.60532 15.9636 7.60532C18.6853 7.60532 19.0084 7.61584 20.0841 7.66478C21.0781 7.71005 21.6176 7.87685 21.9775 8.01551C22.4536 8.20001 22.7932 8.42154 23.1503 8.77815C23.5074 9.13475 23.7277 9.47488 23.913 9.95089C24.0529 10.3098 24.2185 10.8502 24.2637 11.8443C24.3132 12.9199 24.323 13.2418 24.323 15.9645C24.323 18.6873 24.3132 19.0092 24.2637 20.0848C24.2184 21.0788 24.052 21.6191 23.913 21.9782C23.7277 22.4542 23.5069 22.7938 23.1503 23.1501C22.7937 23.5064 22.4536 23.7274 21.9775 23.9127C21.6186 24.0527 21.0781 24.2183 20.0841 24.2635C19.0093 24.3129 18.6865 24.3228 15.9636 24.3228C13.2408 24.3228 12.9188 24.3129 11.8444 24.2635V24.2633ZM11.76 5.8303C10.6746 5.87973 9.93287 6.05183 9.28514 6.30387C8.61473 6.56414 8.04644 6.91332 7.47897 7.47987C6.91149 8.04643 6.5632 8.61477 6.30291 9.28597C6.05087 9.93409 5.87876 10.6754 5.82933 11.7607C5.77908 12.8478 5.76758 13.1954 5.76758 15.9642C5.76758 18.733 5.77908 19.0806 5.82933 20.1677C5.87876 21.2531 6.05087 21.9943 6.30291 22.6424C6.5632 23.3128 6.91158 23.8822 7.47897 24.4485C8.04636 25.0148 8.61391 25.3635 9.28514 25.6245C9.9341 25.8766 10.6746 26.0487 11.76 26.0981C12.8477 26.1475 13.1947 26.1599 15.9636 26.1599C18.7326 26.1599 19.0801 26.1484 20.1673 26.0981C21.2528 26.0487 21.994 25.8766 22.6421 25.6245C23.3126 25.3635 23.8808 25.0151 24.4483 24.4485C25.0158 23.882 25.3633 23.3128 25.6244 22.6424C25.8764 21.9943 26.0493 21.2531 26.0979 20.1677C26.1474 19.0798 26.1589 18.733 26.1589 15.9642C26.1589 13.1954 26.1474 12.8478 26.0979 11.7607C26.0485 10.6753 25.8764 9.93368 25.6244 9.28597C25.3633 8.61559 25.0149 8.04732 24.4483 7.47987C23.8817 6.91243 23.3125 6.56414 22.643 6.30387C21.994 6.05183 21.2527 5.87891 20.1681 5.8303C19.0808 5.78063 18.7334 5.76855 15.9649 5.76855C13.1963 5.76855 12.8481 5.78006 11.7604 5.8303" fill="white"/>
<defs>
<linearGradient id="paint0_linear_826_17116" x1="16.029" y1="9.53623" x2="16" y2="30" gradientUnits="userSpaceOnUse">
<stop stop-color="#FE02B7"/>
<stop offset="0.256159" stop-color="#FC2278"/>
<stop offset="0.465895" stop-color="#FF2160"/>
<stop offset="1" stop-color="#FF5234"/>
</linearGradient>
<radialGradient id="paint1_radial_826_17116" cx="0" cy="0" r="1" gradientUnits="userSpaceOnUse" gradientTransform="translate(6.28985 2.86957) rotate(64.7828) scale(11.0214 27.621)">
<stop stop-color="#7837F9"/>
<stop offset="0.277606" stop-color="#7837F9" stop-opacity="0.9"/>
<stop offset="1" stop-color="#7837F9" stop-opacity="0"/>
</radialGradient>
<radialGradient id="paint2_radial_826_17116" cx="0" cy="0" r="1" gradientUnits="userSpaceOnUse" gradientTransform="translate(8.78261 29.4203) rotate(79.1145) scale(12.2789 19.521)">
<stop stop-color="#FFD702"/>
<stop offset="1" stop-color="#FFD702" stop-opacity="0"/>
</radialGradient>
<radialGradient id="paint3_radial_826_17116" cx="0" cy="0" r="1" gradientUnits="userSpaceOnUse" gradientTransform="translate(30.5797 27.1884) rotate(-159.55) scale(5.4755 7.91772)">
<stop stop-color="#D300C5"/>
<stop offset="1" stop-color="#D300C5" stop-opacity="0"/>
</radialGradient>
<radialGradient id="paint4_radial_826_17116" cx="0" cy="0" r="1" gradientUnits="userSpaceOnUse" gradientTransform="translate(28.3768 4.02898) rotate(165.426) scale(17.9695 10.0245)">
<stop stop-color="#D300C5"/>
<stop offset="1" stop-color="#D300C5" stop-opacity="0"/>
</radialGradient>
<radialGradient id="paint5_radial_826_17116" cx="0" cy="0" r="1" gradientUnits="userSpaceOnUse" gradientTransform="translate(2 13.5362) rotate(-17.1428) scale(12.1939 6.34933)">
<stop stop-color="#D300C5"/>
<stop offset="1" stop-color="#D300C5" stop-opacity="0"/>
</radialGradient>
</defs>
</svg>
