<svg width="32" height="32" viewBox="0 0 32 32" fill="none" xmlns="http://www.w3.org/2000/svg">
<path d="M13.0349 12.8059L13.8393 15.112H12.2306L13.0349 12.8059Z" fill="black"/>
<path fill-rule="evenodd" clip-rule="evenodd" d="M2 14.1072C2 7.97177 8.26662 3 15.9947 3C23.7229 3 30 7.97706 30 14.1124C30 20.2478 23.7334 25.2196 16.0053 25.2196C15.1588 25.2196 14.3229 25.1614 13.5186 25.045C13.4566 25.0885 13.3723 25.1477 13.2694 25.2201C12.0193 26.099 8.01221 28.9162 7.60421 28.9749C7.60421 28.9749 7.4202 29.0436 7.26774 28.9537C7.11528 28.8638 7.14157 28.6258 7.14157 28.6258L8.56102 23.5218C4.6181 21.5489 2 18.074 2 14.1072ZM8.25346 17.9787C8.25434 17.9787 8.25523 17.9787 8.25611 17.9787H8.25085C8.25172 17.9787 8.25259 17.9787 8.25346 17.9787ZM7.4465 17.2012C7.4465 17.6287 7.80781 17.9773 8.25346 17.9787C8.6939 17.9773 9.06047 17.6235 9.06047 17.2012V12.3722H10.3222C10.7533 12.3722 11.1108 12.0178 11.1108 11.5788C11.1108 11.1398 10.7586 10.7855 10.3222 10.7855H6.18476C5.75367 10.7855 5.39618 11.1398 5.39618 11.5788C5.39618 12.0178 5.74841 12.3722 6.18476 12.3722H7.4465V17.2012ZM14.6647 17.6084C14.7435 17.8306 15.0011 17.9681 15.3376 17.9681C15.5163 17.9681 15.6951 17.9364 15.8528 17.8623C16.0736 17.7671 16.2892 17.4762 16.0421 16.7093L14.1127 11.5947C13.9812 11.2033 13.5607 10.7802 13.0349 10.7908C12.5092 10.8013 12.0939 11.2033 11.9572 11.5947L10.0278 16.7093C9.78071 17.4762 9.99625 17.7565 10.2171 17.8623C10.38 17.9311 10.5535 17.9681 10.7323 17.9681C11.0687 17.9681 11.3263 17.8306 11.4052 17.6084L11.8047 16.5506H14.2651L14.6647 17.6084ZM16.5678 17.1218C16.5678 17.5291 16.92 17.8623 17.3406 17.8623L19.9324 17.8464C20.3582 17.8464 20.7052 17.5132 20.7052 17.106C20.7052 16.6987 20.353 16.3655 19.9324 16.3655H18.2186V11.5947C18.2186 11.1504 17.8506 10.7802 17.3932 10.7802C16.9358 10.7802 16.5678 11.1451 16.5678 11.5947V17.1218ZM21.0154 11.6V17.1536C21.0154 18.2337 22.6346 18.1931 22.6346 17.1377V15.3659L22.9133 15.0855L24.8059 17.6084C25.06 17.9434 25.5813 18.0316 25.9362 17.7671C26.2961 17.5147 26.3609 16.9791 26.0939 16.6352L24.1067 13.9907L25.9572 12.1395C26.2365 11.8535 26.167 11.3985 25.8994 11.1293C25.6145 10.8427 25.1441 10.8207 24.8952 11.0711L22.6346 13.3454V11.6C22.6346 11.1557 22.2666 10.7855 21.825 10.7855C21.3834 10.7855 21.0154 11.1504 21.0154 11.6Z" fill="black"/>
</svg>
