<svg width="32" height="32" viewBox="0 0 32 32" fill="none" xmlns="http://www.w3.org/2000/svg">
<rect x="2" y="4.75" width="27.9993" height="24.5007" fill="#AED2FF"/>
<path fill-rule="evenodd" clip-rule="evenodd" d="M15.9945 4.67663C14.395 2.84174 11.7278 2.34816 9.72376 4.02837C7.71972 5.70858 7.43757 8.51781 9.01136 10.505C10.3199 12.1572 14.2798 15.6419 15.5777 16.7697C15.7229 16.8959 15.7955 16.959 15.8802 16.9838C15.9541 17.0054 16.035 17.0054 16.1089 16.9838C16.1936 16.959 16.2662 16.8959 16.4114 16.7697C17.7092 15.6419 21.6692 12.1572 22.9777 10.505C24.5515 8.51781 24.3038 5.69091 22.2653 4.02837C20.2268 2.36584 17.594 2.84174 15.9945 4.67663Z" fill="#358FFE"/>
<rect x="2" y="18.75" width="27.9993" height="10.5003" fill="#5DA5FE"/>
<path d="M2 15.251H8.99984L10.7498 22.2512H2V15.251Z" fill="#5DA5FE"/>
<path d="M23 15.25H29.9998V22.2502H21.25L23 15.25Z" fill="#5DA5FE"/>
</svg>
