<svg width="174" height="28" viewBox="0 0 174 28" fill="none" xmlns="http://www.w3.org/2000/svg">
<path d="M85.9389 17.2919C86.8565 17.2919 87.6004 16.548 87.6004 15.6303C87.6004 14.7127 86.8565 13.9688 85.9389 13.9688C85.0212 13.9688 84.2773 14.7127 84.2773 15.6303C84.2773 16.548 85.0212 17.2919 85.9389 17.2919Z" fill="#A8CEFF"/>
<path fill-rule="evenodd" clip-rule="evenodd" d="M76.5242 4H73.2012V13.2771C73.2012 13.6595 73.5111 13.9694 73.8936 13.9694H76.5235L76.5257 13.9696V16.6001C76.5257 16.9826 76.8356 17.2925 77.2181 17.2925H82.0641C82.9814 17.2922 83.7249 16.5483 83.7249 15.6308C83.7249 14.7131 82.9809 13.9692 82.0634 13.9692C82.0575 13.9692 82.0518 13.9693 82.046 13.9693H79.8465V10.6465H76.5242V4Z" fill="#6EAEFE"/>
<path d="M65.4498 12.3077C64.5322 12.3077 63.7883 13.0516 63.7883 13.9693C63.7883 14.8869 64.5322 15.6309 65.4498 15.6309C66.3674 15.6309 67.1113 14.8869 67.1113 13.9693C67.1113 13.0516 66.3674 12.3077 65.4498 12.3077Z" fill="#A8CEFF"/>
<path fill-rule="evenodd" clip-rule="evenodd" d="M74.1709 12.3076C74.5533 12.3076 74.8632 12.6176 74.8632 12.9999V15.6306H77.4918C77.8741 15.6306 78.1841 15.9406 78.1841 16.3229V25.6001H74.8611V18.954H71.5387V15.6309H74.8611L69.3417 15.6308C69.3363 15.6308 69.3309 15.6308 69.3255 15.6308C68.4079 15.6308 67.6641 14.8869 67.6641 13.9693C67.6641 13.0518 68.4075 12.3081 69.3249 12.3077L74.1709 12.3076Z" fill="url(#paint0_linear_661_17694)"/>
<path d="M77.4946 15.6309C77.877 15.6309 78.1869 15.9408 78.1869 16.3232V17.2924H77.2177C76.8354 17.2924 76.5254 16.9824 76.5254 16.6001V15.6309H77.4946Z" fill="#358FFE"/>
<path d="M74.1703 12.3076C74.5527 12.3076 74.8627 12.6176 74.8627 12.9999V13.9692H73.8935C73.5111 13.9692 73.2012 13.6592 73.2012 13.2769V12.3076H74.1703Z" fill="#358FFE"/>
<path d="M14.483 11.3911L11.7359 23.4207H8.52358L3.67188 5.98555H7.01712L10.1187 17.5499L12.8214 5.98555H16.1667L18.8695 17.5499L21.971 5.98555H25.3162L20.4645 23.4207H17.2522L14.483 11.3911ZM31.546 10.505V23.4207H28.0456V10.505H31.546ZM31.546 5.36523V8.73264H28.0456V5.36523H31.546ZM44.3876 13.7837C43.8264 13.385 43.2061 13.0822 42.5268 12.8754C41.8621 12.6539 41.2491 12.5431 40.688 12.5431C39.211 12.5431 38.4726 12.9714 38.4726 13.828C38.4726 14.1677 38.5981 14.4631 38.8491 14.7142C39.1003 14.9505 39.5803 15.1499 40.2891 15.3123C42.2535 15.7702 43.6935 16.361 44.6092 17.0847C45.5248 17.8084 45.9828 18.7388 45.9828 19.876C45.9828 20.585 45.8425 21.2052 45.5618 21.737C45.296 22.2687 44.9193 22.7044 44.432 23.044C43.9446 23.3985 43.3538 23.657 42.6596 23.8194C41.9803 23.9967 41.2196 24.0852 40.3778 24.0852C39.2258 24.0852 38.1771 23.9229 37.2319 23.5979C36.3015 23.2877 35.4226 22.8447 34.5956 22.2687L35.8584 19.8096C36.4196 20.2822 37.0473 20.6589 37.7415 20.9394C38.4356 21.22 39.1815 21.3604 39.979 21.3604C40.939 21.3604 41.5963 21.2496 41.9508 21.028C42.3052 20.8065 42.4824 20.4372 42.4824 19.9204C42.4824 19.4772 42.2756 19.1154 41.8621 18.8348C41.4633 18.5542 40.88 18.3105 40.112 18.1037C39.1815 17.8527 38.3913 17.5942 37.7415 17.3284C37.0916 17.0625 36.5599 16.7672 36.1464 16.4422C35.7476 16.1025 35.4523 15.7185 35.2603 15.2902C35.0683 14.8471 34.9723 14.3302 34.9723 13.7394C34.9723 13.1487 35.0978 12.617 35.3488 12.1443C35.5999 11.657 35.9544 11.2434 36.4123 10.9037C36.8848 10.564 37.4461 10.3056 38.0959 10.1283C38.7458 9.93633 39.4695 9.84033 40.267 9.84033C40.8873 9.84033 41.4411 9.88464 41.9286 9.97326C42.4308 10.0471 42.8886 10.1579 43.3021 10.3056C43.7304 10.4533 44.1218 10.6305 44.4763 10.8373C44.8308 11.0293 45.1705 11.2434 45.4953 11.4797L44.3876 13.7837ZM51.6126 11.6127C52.1295 11.1253 52.772 10.7486 53.54 10.4828C54.3228 10.2022 55.0908 10.0619 55.844 10.0619C56.6563 10.0619 57.417 10.1874 58.1258 10.4385C58.8348 10.6896 59.455 11.044 59.9868 11.5019C60.5185 11.945 60.932 12.4914 61.2274 13.1413C61.5375 13.7763 61.6927 14.4853 61.6927 15.268V23.4207H58.1923V16.4644C58.1923 15.1647 57.9117 14.2268 57.3505 13.6508C56.7892 13.06 56.0212 12.7647 55.0465 12.7647C54.2046 12.7647 53.4661 13.0527 52.831 13.6287C52.2108 14.1899 51.8046 14.9727 51.6126 15.977V23.4207H48.1123V5.98555H51.6126V11.6127Z" fill="#151516"/>
<path d="M98.483 11.2083L95.7359 23.2379H92.5236L87.6719 5.80273H91.0171L94.1186 17.3671L96.8215 5.80273H100.167L102.87 17.3671L105.971 5.80273H109.316L104.465 23.2379H101.252L98.483 11.2083ZM113.712 18.9843C114.022 19.6932 114.494 20.2397 115.129 20.6237C115.764 21.0077 116.555 21.1997 117.5 21.1997C118.386 21.1997 119.191 21.052 119.915 20.7567C120.653 20.4612 121.318 19.9591 121.908 19.2502L124.146 20.956C123.378 21.8865 122.455 22.6102 121.377 23.1271C120.299 23.644 119.124 23.9025 117.854 23.9025C116.761 23.9025 115.742 23.7327 114.797 23.3929C113.852 23.068 113.025 22.5954 112.316 21.9751C111.622 21.3695 111.068 20.6311 110.654 19.7597C110.256 18.8735 110.056 17.884 110.056 16.7911C110.056 15.7277 110.248 14.7603 110.632 13.8889C111.016 13.0028 111.54 12.2495 112.205 11.6292C112.87 10.9941 113.652 10.5067 114.553 10.167C115.469 9.81259 116.459 9.63537 117.522 9.63537C118.556 9.63537 119.501 9.8052 120.358 10.1449C121.229 10.4846 121.982 10.9572 122.617 11.5627C123.252 12.1535 123.755 12.8698 124.124 13.7117C124.508 14.5388 124.722 15.4471 124.766 16.4367L113.712 18.9843ZM117.677 12.3381C116.363 12.3381 115.321 12.7074 114.553 13.4458C113.8 14.1695 113.387 15.1591 113.313 16.4145L121.288 14.5092C120.904 13.7412 120.402 13.1874 119.782 12.8477C119.161 12.508 118.46 12.3381 117.677 12.3381ZM135.96 13.6009C135.398 13.2021 134.778 12.8994 134.099 12.6926C133.434 12.4711 132.821 12.3603 132.26 12.3603C130.783 12.3603 130.045 12.7886 130.045 13.6452C130.045 13.9849 130.17 14.2803 130.421 14.5314C130.673 14.7677 131.153 14.9671 131.861 15.1295C133.825 15.5874 135.265 16.1782 136.181 16.9019C137.098 17.6255 137.555 18.556 137.555 19.6932C137.555 20.4022 137.414 21.0225 137.134 21.5542C136.868 22.0859 136.492 22.5216 136.004 22.8612C135.517 23.2157 134.926 23.4742 134.232 23.6367C133.553 23.8139 132.792 23.9025 131.95 23.9025C130.798 23.9025 129.749 23.74 128.804 23.4151C127.873 23.1049 126.995 22.6619 126.168 22.0859L127.43 19.6267C127.992 20.0994 128.62 20.476 129.313 20.7567C130.008 21.0372 130.753 21.1775 131.551 21.1775C132.511 21.1775 133.169 21.0667 133.523 20.8452C133.877 20.6237 134.054 20.2545 134.054 19.7375C134.054 19.2945 133.848 18.9327 133.434 18.652C133.036 18.3714 132.452 18.1277 131.684 17.9209C130.753 17.6699 129.964 17.4114 129.313 17.1455C128.664 16.8797 128.132 16.5843 127.718 16.2594C127.32 15.9197 127.025 15.5357 126.833 15.1074C126.641 14.6643 126.545 14.1474 126.545 13.5566C126.545 12.9658 126.67 12.4341 126.922 11.9615C127.172 11.4741 127.526 11.0606 127.985 10.7209C128.458 10.3812 129.018 10.1227 129.668 9.94552C130.318 9.75352 131.041 9.65752 131.839 9.65752C132.46 9.65752 133.013 9.70182 133.501 9.79044C134.003 9.86429 134.461 9.97505 134.874 10.1227C135.302 10.2704 135.694 10.4477 136.049 10.6544C136.403 10.8464 136.742 11.0606 137.068 11.2969L135.96 13.6009ZM142.897 18.9843C143.207 19.6932 143.68 20.2397 144.314 20.6237C144.949 21.0077 145.74 21.1997 146.686 21.1997C147.571 21.1997 148.376 21.052 149.1 20.7567C149.838 20.4612 150.503 19.9591 151.093 19.2502L153.331 20.956C152.563 21.8865 151.64 22.6102 150.562 23.1271C149.484 23.644 148.309 23.9025 147.04 23.9025C145.946 23.9025 144.928 23.7327 143.982 23.3929C143.038 23.068 142.21 22.5954 141.502 21.9751C140.807 21.3695 140.254 20.6311 139.84 19.7597C139.441 18.8735 139.241 17.884 139.241 16.7911C139.241 15.7277 139.433 14.7603 139.817 13.8889C140.201 13.0028 140.725 12.2495 141.39 11.6292C142.055 10.9941 142.837 10.5067 143.738 10.167C144.654 9.81259 145.644 9.63537 146.707 9.63537C147.742 9.63537 148.686 9.8052 149.543 10.1449C150.414 10.4846 151.168 10.9572 151.802 11.5627C152.437 12.1535 152.94 12.8698 153.31 13.7117C153.694 14.5388 153.907 15.4471 153.952 16.4367L142.897 18.9843ZM146.862 12.3381C145.548 12.3381 144.506 12.7074 143.738 13.4458C142.985 14.1695 142.572 15.1591 142.498 16.4145L150.474 14.5092C150.09 13.7412 149.587 13.1874 148.967 12.8477C148.346 12.508 147.646 12.3381 146.862 12.3381ZM159.275 18.9843C159.584 19.6932 160.057 20.2397 160.692 20.6237C161.327 21.0077 162.118 21.1997 163.062 21.1997C163.949 21.1997 164.754 21.052 165.478 20.7567C166.216 20.4612 166.88 19.9591 167.471 19.2502L169.709 20.956C168.941 21.8865 168.018 22.6102 166.939 23.1271C165.862 23.644 164.687 23.9025 163.417 23.9025C162.324 23.9025 161.305 23.7327 160.36 23.3929C159.414 23.068 158.587 22.5954 157.878 21.9751C157.184 21.3695 156.63 20.6311 156.217 19.7597C155.819 18.8735 155.618 17.884 155.618 16.7911C155.618 15.7277 155.81 14.7603 156.194 13.8889C156.578 13.0028 157.103 12.2495 157.768 11.6292C158.432 10.9941 159.215 10.5067 160.116 10.167C161.032 9.81259 162.022 9.63537 163.085 9.63537C164.118 9.63537 165.064 9.8052 165.92 10.1449C166.792 10.4846 167.545 10.9572 168.18 11.5627C168.815 12.1535 169.318 12.8698 169.686 13.7117C170.07 14.5388 170.285 15.4471 170.329 16.4367L159.275 18.9843ZM163.24 12.3381C161.926 12.3381 160.884 12.7074 160.116 13.4458C159.362 14.1695 158.95 15.1591 158.875 16.4145L166.85 14.5092C166.466 13.7412 165.965 13.1874 165.344 12.8477C164.724 12.508 164.022 12.3381 163.24 12.3381Z" fill="#151516"/>
<defs>
<linearGradient id="paint0_linear_661_17694" x1="67.6641" y1="12.3076" x2="78.1879" y2="25.5971" gradientUnits="userSpaceOnUse">
<stop stop-color="#A8CEFF"/>
<stop offset="1" stop-color="#358FFE"/>
</linearGradient>
</defs>
</svg>
