<svg width="20" height="20" viewBox="0 0 20 20" fill="none" xmlns="http://www.w3.org/2000/svg">
<path fill-rule="evenodd" clip-rule="evenodd" d="M10 20C15.5225 20 20 15.5225 20 10C20 4.47754 15.5225 0 10 0C4.47754 0 0 4.47754 0 10C0 15.5225 4.47754 20 10 20ZM7 9C7.55273 9 8 8.55273 8 8C8 7.44727 7.55273 7 7 7C6.44727 7 6 7.44727 6 8C6 8.55273 6.44727 9 7 9ZM14 8C14 8.55273 13.5527 9 13 9C12.4473 9 12 8.55273 12 8C12 7.76074 12.084 7.54102 12.2236 7.36914C12.4072 7.14355 12.6865 7 13 7C13.5527 7 14 7.44727 14 8ZM6.40918 11.7129C6.25098 11.4873 5.93945 11.4316 5.71289 11.5908C5.60254 11.668 5.5332 11.7822 5.50977 11.9053C5.48438 12.0332 5.50977 12.1709 5.59082 12.2871C6.4873 13.5684 8.24316 14.5 10 14.5C11.7568 14.5 13.5127 13.5684 14.4092 12.2871C14.5684 12.0605 14.5127 11.749 14.2871 11.5908C14.0605 11.4316 13.749 11.4873 13.5908 11.7129C12.8877 12.7178 11.4434 13.5 10 13.5C8.55664 13.5 7.1123 12.7178 6.40918 11.7129Z" fill="currentColor"/>
</svg>
