<svg width="20" height="20" viewBox="0 0 20 20" fill="none" xmlns="http://www.w3.org/2000/svg">
<path fill-rule="evenodd" clip-rule="evenodd" d="M10 20C15.5228 20 20 15.5228 20 10C20 4.47715 15.5228 0 10 0C4.47715 0 0 4.47715 0 10C0 15.5228 4.47715 20 10 20ZM7 9C7.55228 9 8 8.55229 8 8C8 7.44772 7.55228 7 7 7C6.44772 7 6 7.44772 6 8C6 8.55229 6.44772 9 7 9ZM14 8C14 8.55229 13.5523 9 13 9C12.4477 9 12 8.55229 12 8C12 7.44772 12.4477 7 13 7C13.5523 7 14 7.44772 14 8ZM6.40962 14.2867C6.25126 14.513 5.93949 14.568 5.71327 14.4096C5.48704 14.2513 5.43203 13.9395 5.59038 13.7133C6.48748 12.4317 8.2431 11.5 10 11.5C11.7569 11.5 13.5125 12.4317 14.4096 13.7133C14.568 13.9395 14.513 14.2513 14.2867 14.4096C14.0605 14.568 13.7487 14.513 13.5904 14.2867C12.8875 13.2826 11.4431 12.5 10 12.5C8.5569 12.5 7.11252 13.2826 6.40962 14.2867Z" fill="currentColor"/>
</svg>
