<svg width="281" height="60" viewBox="0 0 281 60" fill="none" xmlns="http://www.w3.org/2000/svg">
<path d="M30.6821 23.9796L25.7221 45.6996H19.9221L11.1621 14.2196H17.2021L22.8021 35.0996L27.6821 14.2196H33.7221L38.6021 35.0996L44.2021 14.2196H50.2421L41.4821 45.6996H35.6821L30.6821 23.9796Z" fill="url(#paint0_linear_858_17259)"/>
<path d="M61.4902 22.3796V45.6996H55.1702V22.3796H61.4902ZM61.4902 13.0996V19.1796H55.1702V13.0996H61.4902Z" fill="url(#paint1_linear_858_17259)"/>
<path d="M84.6765 28.2996C83.6631 27.5796 82.5432 27.0329 81.3165 26.6596C80.1165 26.2596 79.0098 26.0596 77.9965 26.0596C75.3298 26.0596 73.9965 26.8329 73.9965 28.3796C73.9965 28.9929 74.2231 29.5263 74.6765 29.9796C75.1298 30.4063 75.9965 30.7663 77.2765 31.0596C80.8232 31.8863 83.4231 32.9529 85.0765 34.2596C86.7298 35.5663 87.5565 37.2463 87.5565 39.2996C87.5565 40.5796 87.3032 41.6996 86.7965 42.6596C86.3165 43.6196 85.6365 44.4063 84.7565 45.0196C83.8765 45.6596 82.8098 46.1263 81.5565 46.4196C80.3298 46.7396 78.9565 46.8996 77.4365 46.8996C75.3565 46.8996 73.4632 46.6063 71.7565 46.0196C70.0765 45.4596 68.4898 44.6596 66.9965 43.6196L69.2765 39.1796C70.2898 40.0329 71.4231 40.7129 72.6765 41.2196C73.9298 41.7263 75.2765 41.9796 76.7165 41.9796C78.4498 41.9796 79.6365 41.7796 80.2765 41.3796C80.9165 40.9796 81.2365 40.3129 81.2365 39.3796C81.2365 38.5796 80.8632 37.9263 80.1165 37.4196C79.3965 36.9129 78.3431 36.4729 76.9565 36.0996C75.2765 35.6463 73.8498 35.1796 72.6765 34.6996C71.5032 34.2196 70.5432 33.6863 69.7965 33.0996C69.0765 32.4863 68.5432 31.7929 68.1965 31.0196C67.8498 30.2196 67.6765 29.2863 67.6765 28.2196C67.6765 27.1529 67.9031 26.1929 68.3565 25.3396C68.8098 24.4596 69.4498 23.7129 70.2765 23.0996C71.1298 22.4863 72.1432 22.0196 73.3165 21.6996C74.4898 21.3529 75.7965 21.1796 77.2365 21.1796C78.3565 21.1796 79.3565 21.2596 80.2365 21.4196C81.1432 21.5529 81.9698 21.7529 82.7165 22.0196C83.4898 22.2863 84.1965 22.6063 84.8365 22.9796C85.4765 23.3263 86.0898 23.7129 86.6765 24.1396L84.6765 28.2996Z" fill="url(#paint2_linear_858_17259)"/>
<path d="M97.7215 24.3796C98.6548 23.4996 99.8148 22.8196 101.201 22.3396C102.615 21.8329 104.001 21.5796 105.361 21.5796C106.828 21.5796 108.201 21.8063 109.481 22.2596C110.761 22.7129 111.881 23.3529 112.841 24.1796C113.801 24.9796 114.548 25.9663 115.081 27.1396C115.641 28.2863 115.921 29.5663 115.921 30.9796V45.6996H109.601V33.1396C109.601 30.7929 109.095 29.0996 108.081 28.0596C107.068 26.9929 105.681 26.4596 103.921 26.4596C102.401 26.4596 101.068 26.9796 99.9215 28.0196C98.8015 29.0329 98.0681 30.4463 97.7215 32.2596V45.6996H91.4015V14.2196H97.7215V24.3796Z" fill="url(#paint3_linear_858_17259)"/>
<path d="M139.354 23.9796L134.394 45.6996H128.594L119.834 14.2196H125.874L131.474 35.0996L136.354 14.2196H142.394L147.274 35.0996L152.874 14.2196H158.914L150.154 45.6996H144.354L139.354 23.9796Z" fill="url(#paint4_linear_858_17259)"/>
<path d="M166.85 38.0196C167.41 39.2996 168.263 40.2863 169.41 40.9796C170.557 41.6729 171.983 42.0196 173.69 42.0196C175.29 42.0196 176.743 41.7529 178.05 41.2196C179.383 40.6863 180.583 39.7796 181.65 38.4996L185.69 41.5796C184.303 43.2596 182.637 44.5663 180.69 45.4996C178.743 46.4329 176.623 46.8996 174.33 46.8996C172.357 46.8996 170.517 46.5929 168.81 45.9796C167.103 45.3929 165.61 44.5396 164.33 43.4196C163.077 42.3263 162.077 40.9929 161.33 39.4196C160.61 37.8196 160.25 36.0329 160.25 34.0596C160.25 32.1396 160.597 30.3929 161.29 28.8196C161.983 27.2196 162.93 25.8596 164.13 24.7396C165.33 23.5929 166.743 22.7129 168.37 22.0996C170.023 21.4596 171.81 21.1396 173.73 21.1396C175.597 21.1396 177.303 21.4463 178.85 22.0596C180.423 22.6729 181.783 23.5263 182.93 24.6196C184.077 25.6863 184.983 26.9796 185.65 28.4996C186.343 29.9929 186.73 31.6329 186.81 33.4196L166.85 38.0196ZM174.01 26.0196C171.637 26.0196 169.757 26.6863 168.37 28.0196C167.01 29.3263 166.263 31.1129 166.13 33.3796L180.53 29.9396C179.837 28.5529 178.93 27.5529 177.81 26.9396C176.69 26.3263 175.423 26.0196 174.01 26.0196Z" fill="url(#paint5_linear_858_17259)"/>
<path d="M207.02 28.2996C206.007 27.5796 204.887 27.0329 203.66 26.6596C202.46 26.2596 201.354 26.0596 200.34 26.0596C197.674 26.0596 196.34 26.8329 196.34 28.3796C196.34 28.9929 196.567 29.5263 197.02 29.9796C197.474 30.4063 198.34 30.7663 199.62 31.0596C203.167 31.8863 205.767 32.9529 207.42 34.2596C209.074 35.5663 209.9 37.2463 209.9 39.2996C209.9 40.5796 209.647 41.6996 209.14 42.6596C208.66 43.6196 207.98 44.4063 207.1 45.0196C206.22 45.6596 205.154 46.1263 203.9 46.4196C202.674 46.7396 201.3 46.8996 199.78 46.8996C197.7 46.8996 195.807 46.6063 194.1 46.0196C192.42 45.4596 190.834 44.6596 189.34 43.6196L191.62 39.1796C192.634 40.0329 193.767 40.7129 195.02 41.2196C196.274 41.7263 197.62 41.9796 199.06 41.9796C200.794 41.9796 201.98 41.7796 202.62 41.3796C203.26 40.9796 203.58 40.3129 203.58 39.3796C203.58 38.5796 203.207 37.9263 202.46 37.4196C201.74 36.9129 200.687 36.4729 199.3 36.0996C197.62 35.6463 196.194 35.1796 195.02 34.6996C193.847 34.2196 192.887 33.6863 192.14 33.0996C191.42 32.4863 190.887 31.7929 190.54 31.0196C190.194 30.2196 190.02 29.2863 190.02 28.2196C190.02 27.1529 190.247 26.1929 190.7 25.3396C191.154 24.4596 191.794 23.7129 192.62 23.0996C193.474 22.4863 194.487 22.0196 195.66 21.6996C196.834 21.3529 198.14 21.1796 199.58 21.1796C200.7 21.1796 201.7 21.2596 202.58 21.4196C203.487 21.5529 204.314 21.7529 205.06 22.0196C205.834 22.2863 206.54 22.6063 207.18 22.9796C207.82 23.3263 208.434 23.7129 209.02 24.1396L207.02 28.2996Z" fill="url(#paint6_linear_858_17259)"/>
<path d="M219.545 38.0196C220.105 39.2996 220.959 40.2863 222.105 40.9796C223.252 41.6729 224.679 42.0196 226.385 42.0196C227.985 42.0196 229.439 41.7529 230.745 41.2196C232.079 40.6863 233.279 39.7796 234.345 38.4996L238.385 41.5796C236.999 43.2596 235.332 44.5663 233.385 45.4996C231.439 46.4329 229.319 46.8996 227.025 46.8996C225.052 46.8996 223.212 46.5929 221.505 45.9796C219.799 45.3929 218.305 44.5396 217.025 43.4196C215.772 42.3263 214.772 40.9929 214.025 39.4196C213.305 37.8196 212.945 36.0329 212.945 34.0596C212.945 32.1396 213.292 30.3929 213.985 28.8196C214.679 27.2196 215.625 25.8596 216.825 24.7396C218.025 23.5929 219.439 22.7129 221.065 22.0996C222.719 21.4596 224.505 21.1396 226.425 21.1396C228.292 21.1396 229.999 21.4463 231.545 22.0596C233.119 22.6729 234.479 23.5263 235.625 24.6196C236.772 25.6863 237.679 26.9796 238.345 28.4996C239.039 29.9929 239.425 31.6329 239.505 33.4196L219.545 38.0196ZM226.705 26.0196C224.332 26.0196 222.452 26.6863 221.065 28.0196C219.705 29.3263 218.959 31.1129 218.825 33.3796L233.225 29.9396C232.532 28.5529 231.625 27.5529 230.505 26.9396C229.385 26.3263 228.119 26.0196 226.705 26.0196Z" fill="url(#paint7_linear_858_17259)"/>
<path d="M249.116 38.0196C249.676 39.2996 250.529 40.2863 251.676 40.9796C252.822 41.6729 254.249 42.0196 255.956 42.0196C257.556 42.0196 259.009 41.7529 260.316 41.2196C261.649 40.6863 262.849 39.7796 263.916 38.4996L267.956 41.5796C266.569 43.2596 264.902 44.5663 262.956 45.4996C261.009 46.4329 258.889 46.8996 256.596 46.8996C254.622 46.8996 252.782 46.5929 251.076 45.9796C249.369 45.3929 247.876 44.5396 246.596 43.4196C245.342 42.3263 244.342 40.9929 243.596 39.4196C242.876 37.8196 242.516 36.0329 242.516 34.0596C242.516 32.1396 242.862 30.3929 243.556 28.8196C244.249 27.2196 245.196 25.8596 246.396 24.7396C247.596 23.5929 249.009 22.7129 250.636 22.0996C252.289 21.4596 254.076 21.1396 255.996 21.1396C257.862 21.1396 259.569 21.4463 261.116 22.0596C262.689 22.6729 264.049 23.5263 265.196 24.6196C266.342 25.6863 267.249 26.9796 267.916 28.4996C268.609 29.9929 268.996 31.6329 269.076 33.4196L249.116 38.0196ZM256.276 26.0196C253.902 26.0196 252.022 26.6863 250.636 28.0196C249.276 29.3263 248.529 31.1129 248.396 33.3796L262.796 29.9396C262.102 28.5529 261.196 27.5529 260.076 26.9396C258.956 26.3263 257.689 26.0196 256.276 26.0196Z" fill="url(#paint8_linear_858_17259)"/>
<defs>
<linearGradient id="paint0_linear_858_17259" x1="11.2126" y1="-4.7002" x2="270.494" y2="8.98103" gradientUnits="userSpaceOnUse">
<stop stop-color="#A8CEFF"/>
<stop offset="1" stop-color="#358FFE"/>
</linearGradient>
<linearGradient id="paint1_linear_858_17259" x1="11.2126" y1="-4.7002" x2="270.494" y2="8.98103" gradientUnits="userSpaceOnUse">
<stop stop-color="#A8CEFF"/>
<stop offset="1" stop-color="#358FFE"/>
</linearGradient>
<linearGradient id="paint2_linear_858_17259" x1="11.2126" y1="-4.7002" x2="270.494" y2="8.98103" gradientUnits="userSpaceOnUse">
<stop stop-color="#A8CEFF"/>
<stop offset="1" stop-color="#358FFE"/>
</linearGradient>
<linearGradient id="paint3_linear_858_17259" x1="11.2126" y1="-4.7002" x2="270.494" y2="8.98103" gradientUnits="userSpaceOnUse">
<stop stop-color="#A8CEFF"/>
<stop offset="1" stop-color="#358FFE"/>
</linearGradient>
<linearGradient id="paint4_linear_858_17259" x1="11.2126" y1="-4.7002" x2="270.494" y2="8.98103" gradientUnits="userSpaceOnUse">
<stop stop-color="#A8CEFF"/>
<stop offset="1" stop-color="#358FFE"/>
</linearGradient>
<linearGradient id="paint5_linear_858_17259" x1="11.2126" y1="-4.7002" x2="270.494" y2="8.98103" gradientUnits="userSpaceOnUse">
<stop stop-color="#A8CEFF"/>
<stop offset="1" stop-color="#358FFE"/>
</linearGradient>
<linearGradient id="paint6_linear_858_17259" x1="11.2126" y1="-4.7002" x2="270.494" y2="8.98103" gradientUnits="userSpaceOnUse">
<stop stop-color="#A8CEFF"/>
<stop offset="1" stop-color="#358FFE"/>
</linearGradient>
<linearGradient id="paint7_linear_858_17259" x1="11.2126" y1="-4.7002" x2="270.494" y2="8.98103" gradientUnits="userSpaceOnUse">
<stop stop-color="#A8CEFF"/>
<stop offset="1" stop-color="#358FFE"/>
</linearGradient>
<linearGradient id="paint8_linear_858_17259" x1="11.2126" y1="-4.7002" x2="270.494" y2="8.98103" gradientUnits="userSpaceOnUse">
<stop stop-color="#A8CEFF"/>
<stop offset="1" stop-color="#358FFE"/>
</linearGradient>
</defs>
</svg>
