<svg width="180" height="60" viewBox="0 0 180 60" fill="none" xmlns="http://www.w3.org/2000/svg">
<path d="M15.8534 21.6996C15.8534 20.1529 16.1468 18.8463 16.7334 17.7796C17.3201 16.6863 18.1201 15.7929 19.1334 15.0996C20.1468 14.4063 21.3334 13.8996 22.6934 13.5796C24.0801 13.2596 25.5734 13.0996 27.1734 13.0996C28.7468 13.0996 30.2268 13.2596 31.6134 13.5796C33.0001 13.8996 34.2001 14.4063 35.2134 15.0996C36.2534 15.7929 37.0668 16.6863 37.6534 17.7796C38.2668 18.8463 38.5734 20.1529 38.5734 21.6996C38.5734 23.2196 38.2668 24.5129 37.6534 25.5796C37.0668 26.6463 36.2534 27.5263 35.2134 28.2196C34.2001 28.9129 33.0001 29.4196 31.6134 29.7396C30.2268 30.0596 28.7468 30.2196 27.1734 30.2196C25.5734 30.2196 24.0801 30.0596 22.6934 29.7396C21.3334 29.4196 20.1468 28.9129 19.1334 28.2196C18.1201 27.5263 17.3201 26.6463 16.7334 25.5796C16.1468 24.5129 15.8534 23.2196 15.8534 21.6996ZM48.3734 46.8996H42.0934V13.4596H48.3734V46.8996ZM23.7334 46.8996V37.6596H14.7734V32.7796H39.7334V37.6596H30.0134V46.8996H23.7334ZM27.1734 25.3796C28.6934 25.3796 29.9201 25.0596 30.8534 24.4196C31.8134 23.7796 32.2934 22.8729 32.2934 21.6996C32.2934 20.4463 31.8134 19.5129 30.8534 18.8996C29.9201 18.2863 28.6934 17.9796 27.1734 17.9796C25.5734 17.9796 24.3334 18.2996 23.4534 18.9396C22.5734 19.5796 22.1334 20.4996 22.1334 21.6996C22.1334 22.9263 22.5734 23.8463 23.4534 24.4596C24.3601 25.0729 25.6001 25.3796 27.1734 25.3796Z" fill="url(#paint0_linear_858_17260)"/>
<path d="M67.8306 28.4196C67.8306 30.4463 67.6173 32.2996 67.1906 33.9796L77.4306 41.5796L74.3506 46.2196L64.9906 39.1796C63.9773 40.7796 62.644 42.1663 60.9906 43.3396C59.3373 44.5129 57.324 45.4863 54.9506 46.2596L52.1906 41.6196C53.7906 41.0596 55.1773 40.4329 56.3506 39.7396C57.524 39.0463 58.4973 38.1929 59.2706 37.1796C60.044 36.1396 60.6173 34.9129 60.9906 33.4996C61.364 32.0863 61.5506 30.3796 61.5506 28.3796V13.7796H67.8306V28.4196ZM85.9906 46.8996H79.7106V13.4596H85.9906V46.8996Z" fill="url(#paint1_linear_858_17260)"/>
<path d="M91.0878 21.6996C91.0878 20.1529 91.3811 18.8463 91.9678 17.7796C92.5545 16.6863 93.3545 15.7929 94.3678 15.0996C95.3811 14.4063 96.5678 13.8996 97.9278 13.5796C99.3145 13.2596 100.808 13.0996 102.408 13.0996C103.981 13.0996 105.461 13.2596 106.848 13.5796C108.234 13.8996 109.434 14.4063 110.448 15.0996C111.488 15.7929 112.301 16.6863 112.888 17.7796C113.501 18.8463 113.808 20.1529 113.808 21.6996C113.808 23.2196 113.501 24.5129 112.888 25.5796C112.301 26.6463 111.488 27.5263 110.448 28.2196C109.434 28.9129 108.234 29.4196 106.848 29.7396C105.461 30.0596 103.981 30.2196 102.408 30.2196C100.808 30.2196 99.3145 30.0596 97.9278 29.7396C96.5678 29.4196 95.3811 28.9129 94.3678 28.2196C93.3545 27.5263 92.5545 26.6463 91.9678 25.5796C91.3811 24.5129 91.0878 23.2196 91.0878 21.6996ZM123.608 46.8996H117.328V13.4596H123.608V46.8996ZM98.9678 46.8996V37.6596H90.0078V32.7796H114.968V37.6596H105.248V46.8996H98.9678ZM102.408 25.3796C103.928 25.3796 105.154 25.0596 106.088 24.4196C107.048 23.7796 107.528 22.8729 107.528 21.6996C107.528 20.4463 107.048 19.5129 106.088 18.8996C105.154 18.2863 103.928 17.9796 102.408 17.9796C100.808 17.9796 99.5678 18.2996 98.6878 18.9396C97.8078 19.5796 97.3678 20.4996 97.3678 21.6996C97.3678 22.9263 97.8078 23.8463 98.6878 24.4596C99.5945 25.0729 100.834 25.3796 102.408 25.3796Z" fill="url(#paint2_linear_858_17260)"/>
<path d="M139.665 28.4196C139.665 28.7129 139.665 29.0196 139.665 29.3396C139.665 29.6329 139.652 29.9263 139.625 30.2196L144.905 34.1796C145.225 32.5529 145.385 30.6196 145.385 28.3796V13.7796H151.265V28.4196C151.265 31.8063 150.865 34.6729 150.065 37.0196L156.545 42.2596L153.105 46.5796L147.465 41.8596C146.078 43.5663 144.212 45.2463 141.865 46.8996L138.425 42.9796C139.332 42.3929 140.132 41.8063 140.825 41.2196C141.545 40.6063 142.172 39.9529 142.705 39.2596L138.505 36.0196C137.812 37.9396 136.772 39.6863 135.385 41.2596C134.025 42.8329 132.212 44.2996 129.945 45.6596L126.585 41.3396C127.758 40.7529 128.785 40.0729 129.665 39.2996C130.572 38.5263 131.332 37.6329 131.945 36.6196C132.558 35.5796 133.012 34.3929 133.305 33.0596C133.625 31.6996 133.785 30.1396 133.785 28.3796V13.7796H139.665V28.4196ZM165.225 46.8996H158.945V13.4596H165.225V46.8996Z" fill="url(#paint3_linear_858_17260)"/>
<defs>
<linearGradient id="paint0_linear_858_17260" x1="-38.9104" y1="-3.54004" x2="220.371" y2="10.1412" gradientUnits="userSpaceOnUse">
<stop stop-color="#358FFE"/>
<stop offset="1" stop-color="#A8CEFF"/>
</linearGradient>
<linearGradient id="paint1_linear_858_17260" x1="-38.9104" y1="-3.54004" x2="220.371" y2="10.1412" gradientUnits="userSpaceOnUse">
<stop stop-color="#358FFE"/>
<stop offset="1" stop-color="#A8CEFF"/>
</linearGradient>
<linearGradient id="paint2_linear_858_17260" x1="-38.9104" y1="-3.54004" x2="220.371" y2="10.1412" gradientUnits="userSpaceOnUse">
<stop stop-color="#358FFE"/>
<stop offset="1" stop-color="#A8CEFF"/>
</linearGradient>
<linearGradient id="paint3_linear_858_17260" x1="-38.9104" y1="-3.54004" x2="220.371" y2="10.1412" gradientUnits="userSpaceOnUse">
<stop stop-color="#358FFE"/>
<stop offset="1" stop-color="#A8CEFF"/>
</linearGradient>
</defs>
</svg>
