<svg width="32" height="32" viewBox="0 0 32 32" fill="none" xmlns="http://www.w3.org/2000/svg">
<path d="M15.9947 3C8.26662 3 2 7.97177 2 14.1072C2 18.074 4.6181 21.5489 8.56102 23.5218L7.14157 28.6258C7.14157 28.6258 7.11528 28.8638 7.26774 28.9537C7.4202 29.0436 7.60421 28.9749 7.60421 28.9749C8.04581 28.9114 12.7037 25.6163 13.5186 25.045C14.3229 25.1614 15.1588 25.2196 16.0053 25.2196C23.7334 25.2196 30 20.2478 30 14.1124C30 7.97706 23.7229 3 15.9947 3Z" fill="black"/>
<path d="M8.25544 17.9788C7.80858 17.9788 7.44583 17.6297 7.44583 17.2013V12.3723H6.18409C5.74774 12.3723 5.39551 12.0179 5.39551 11.5789C5.39551 11.1399 5.753 10.7856 6.18409 10.7856H10.3215C10.7579 10.7856 11.1101 11.1399 11.1101 11.5789C11.1101 12.0179 10.7526 12.3723 10.3215 12.3723H9.0598V17.2013C9.0598 17.6244 8.69179 17.9788 8.25018 17.9788H8.25544ZM15.3369 17.9682C15.0005 17.9682 14.7429 17.8307 14.664 17.6085L14.2645 16.5507H11.8041L11.4045 17.6085C11.3257 17.8307 11.0681 17.9682 10.7316 17.9682C10.5528 17.9682 10.3794 17.9312 10.2164 17.8624C9.99558 17.7566 9.78004 17.4763 10.0271 16.7094L11.9565 11.5948C12.0932 11.2034 12.5085 10.8014 13.0343 10.7909C13.56 10.7803 13.9806 11.2034 14.112 11.5948L16.0414 16.7094C16.2885 17.4763 16.0729 17.7672 15.8521 17.8624C15.6944 17.9365 15.5157 17.9682 15.3369 17.9682ZM13.8386 15.1121L13.0343 12.806L12.2299 15.1121H13.8386ZM17.3399 17.8624C16.9194 17.8624 16.5671 17.5292 16.5671 17.1219V11.5948C16.5671 11.1452 16.9351 10.7803 17.3925 10.7803C17.8499 10.7803 18.2179 11.1505 18.2179 11.5948V16.3656H19.9317C20.3523 16.3656 20.7046 16.6988 20.7046 17.1061C20.7046 17.5133 20.3576 17.8465 19.9317 17.8465L17.3399 17.8624ZM21.0147 17.1537V11.6001C21.0147 11.1505 21.3827 10.7856 21.8243 10.7856C22.266 10.7856 22.634 11.1558 22.634 11.6001V13.3455L24.8946 11.0712C25.1434 10.8208 25.6138 10.8428 25.8987 11.1294C26.1663 11.3986 26.2359 11.8536 25.9565 12.1396L24.106 13.9908L26.0932 16.6353C26.3602 16.9792 26.2955 17.5148 25.9355 17.7672C25.5806 18.0317 25.0593 17.9435 24.8052 17.6085L22.9126 15.0856L22.634 15.3659V17.1378C22.634 18.1932 21.0147 18.2338 21.0147 17.1537Z" fill="#FFE812"/>
</svg>
