<svg width="192" height="170" viewBox="0 0 192 170" fill="none" xmlns="http://www.w3.org/2000/svg">
<g opacity="0.1">
<path d="M180.789 33.5294C186.881 27.438 186.881 17.562 180.789 11.4706C174.698 5.37928 164.822 5.37928 158.731 11.4706C152.639 17.562 152.639 27.438 158.731 33.5294C164.822 39.6207 174.698 39.6207 180.789 33.5294Z" fill="#AED2FF"/>
<path fill-rule="evenodd" clip-rule="evenodd" d="M30.0548 7.78906L7.99609 29.8478L69.5769 91.4282C72.115 93.9662 76.23 93.9662 78.7681 91.4282L96.2312 73.9652L118.29 51.9067L96.2311 29.848L74.1724 51.9066L30.0548 7.78906ZM122.886 91.4282C120.348 93.9662 116.233 93.9662 113.695 91.4282L96.2312 73.9652L132.996 37.2008C139.088 31.1094 148.964 31.1096 155.055 37.2009C161.146 43.2923 161.146 53.1683 155.055 59.2597C155.036 59.2791 155.016 59.2985 154.997 59.3178L122.886 91.4282Z" fill="#6EAEFE"/>
<path d="M11.6721 136.471C5.58074 142.562 5.58074 152.438 11.6721 158.529C17.7635 164.621 27.6395 164.621 33.7309 158.529C39.8222 152.438 39.8222 142.562 33.7309 136.471C27.6395 130.379 17.7635 130.379 11.6721 136.471Z" fill="#AED2FF"/>
<path fill-rule="evenodd" clip-rule="evenodd" d="M69.5768 78.5598C72.1149 76.0217 76.2299 76.0217 78.768 78.5598L96.2312 96.0227L59.543 132.711C59.5176 132.737 59.4921 132.763 59.4665 132.788C53.3751 138.88 43.4991 138.88 37.4077 132.788C31.3163 126.697 31.3163 116.821 37.4076 110.73C37.4078 110.729 37.408 110.729 37.4082 110.729L69.5768 78.5598ZM162.407 162.199L184.466 140.141L122.885 78.5598C120.347 76.0217 116.232 76.0217 113.694 78.5598L96.2312 96.0227L74.1731 118.082L96.2319 140.141L118.29 118.082L162.407 162.199Z" fill="url(#paint0_linear_984_176)"/>
<path d="M113.694 78.5676C116.232 76.0296 120.347 76.0296 122.885 78.5676L129.319 85.0016L122.885 91.4356C120.347 93.9736 116.232 93.9736 113.694 91.4356L107.26 85.0016L113.694 78.5676Z" fill="#358FFE"/>
<path d="M69.5774 78.5598C72.1154 76.0217 76.2305 76.0217 78.7685 78.5598L85.2024 84.9937L78.7686 91.4278C76.2305 93.9658 72.1155 93.9658 69.5774 91.4278L63.1436 84.9937L69.5774 78.5598Z" fill="#358FFE"/>
</g>
<defs>
<linearGradient id="paint0_linear_984_176" x1="26.378" y1="121.759" x2="184.466" y2="140.141" gradientUnits="userSpaceOnUse">
<stop stop-color="#A8CEFF"/>
<stop offset="1" stop-color="#358FFE"/>
</linearGradient>
</defs>
</svg>
